<mxfile host="app.diagrams.net" agent="Mozilla/5.0 (Windows NT 10.0; Win64; x64; rv:134.0) Gecko/20100101 Firefox/134.0" version="26.0.10">
  <diagram name="Page-1" id="adOrIFymFFJTRw3BzbVN">
    <mxGraphModel dx="2956" dy="1217" grid="1" gridSize="10" guides="1" tooltips="1" connect="1" arrows="1" fold="1" page="1" pageScale="1" pageWidth="500" pageHeight="150" math="1" shadow="0">
      <root>
        <mxCell id="0" />
        <mxCell id="1" parent="0" />
        <mxCell id="Q722ckxabsYqj8SurIKe-194" value="" style="rounded=1;whiteSpace=wrap;html=1;fillColor=#F0F0F0;" parent="1" vertex="1">
          <mxGeometry x="1408.5" y="648" width="247.42" height="265" as="geometry" />
        </mxCell>
        <mxCell id="Q722ckxabsYqj8SurIKe-193" value="" style="rounded=1;whiteSpace=wrap;html=1;fillColor=#F0F0F0;" parent="1" vertex="1">
          <mxGeometry x="1398.5" y="638" width="247.42" height="265" as="geometry" />
        </mxCell>
        <mxCell id="Q722ckxabsYqj8SurIKe-192" value="" style="rounded=1;whiteSpace=wrap;html=1;fillColor=#F0F0F0;" parent="1" vertex="1">
          <mxGeometry x="1388.5" y="628" width="247.42" height="265" as="geometry" />
        </mxCell>
        <mxCell id="Q722ckxabsYqj8SurIKe-184" value="" style="rounded=0;whiteSpace=wrap;html=1;fillColor=#9A9B9E;" parent="1" vertex="1">
          <mxGeometry x="1029.87" y="615" width="247.42" height="330" as="geometry" />
        </mxCell>
        <mxCell id="Q722ckxabsYqj8SurIKe-185" value="" style="triangle;whiteSpace=wrap;html=1;rotation=90;fillColor=#9A9B9E;" parent="1" vertex="1">
          <mxGeometry x="1246.5" y="605" width="20" height="40" as="geometry" />
        </mxCell>
        <mxCell id="Q722ckxabsYqj8SurIKe-186" value="&lt;font style=&quot;font-size: 14px;&quot;&gt;$$en$$&lt;/font&gt;" style="text;html=1;align=center;verticalAlign=middle;whiteSpace=wrap;rounded=0;" parent="1" vertex="1">
          <mxGeometry x="1040.08" y="616" width="60" height="18" as="geometry" />
        </mxCell>
        <mxCell id="Q722ckxabsYqj8SurIKe-187" value="&lt;font style=&quot;font-size: 14px;&quot;&gt;$$cs$$&lt;/font&gt;" style="text;html=1;align=center;verticalAlign=middle;whiteSpace=wrap;rounded=0;" parent="1" vertex="1">
          <mxGeometry x="1167.34" y="615" width="60" height="18" as="geometry" />
        </mxCell>
        <mxCell id="Q722ckxabsYqj8SurIKe-180" value="" style="rounded=0;whiteSpace=wrap;html=1;fillColor=#9A9B9E;" parent="1" vertex="1">
          <mxGeometry x="1019.8699999999999" y="605" width="247.42" height="330" as="geometry" />
        </mxCell>
        <mxCell id="Q722ckxabsYqj8SurIKe-181" value="" style="triangle;whiteSpace=wrap;html=1;rotation=90;fillColor=#9A9B9E;" parent="1" vertex="1">
          <mxGeometry x="1236.5" y="595" width="20" height="40" as="geometry" />
        </mxCell>
        <mxCell id="Q722ckxabsYqj8SurIKe-182" value="&lt;font style=&quot;font-size: 14px;&quot;&gt;$$en$$&lt;/font&gt;" style="text;html=1;align=center;verticalAlign=middle;whiteSpace=wrap;rounded=0;" parent="1" vertex="1">
          <mxGeometry x="1030.08" y="606" width="60" height="18" as="geometry" />
        </mxCell>
        <mxCell id="Q722ckxabsYqj8SurIKe-183" value="&lt;font style=&quot;font-size: 14px;&quot;&gt;$$cs$$&lt;/font&gt;" style="text;html=1;align=center;verticalAlign=middle;whiteSpace=wrap;rounded=0;" parent="1" vertex="1">
          <mxGeometry x="1157.34" y="605" width="60" height="18" as="geometry" />
        </mxCell>
        <mxCell id="Q722ckxabsYqj8SurIKe-176" value="" style="rounded=0;whiteSpace=wrap;html=1;fillColor=#9A9B9E;" parent="1" vertex="1">
          <mxGeometry x="1009.87" y="595" width="247.42" height="330" as="geometry" />
        </mxCell>
        <mxCell id="Q722ckxabsYqj8SurIKe-177" value="" style="triangle;whiteSpace=wrap;html=1;rotation=90;fillColor=#9A9B9E;" parent="1" vertex="1">
          <mxGeometry x="1226.5" y="585" width="20" height="40" as="geometry" />
        </mxCell>
        <mxCell id="Q722ckxabsYqj8SurIKe-178" value="&lt;font style=&quot;font-size: 14px;&quot;&gt;$$en$$&lt;/font&gt;" style="text;html=1;align=center;verticalAlign=middle;whiteSpace=wrap;rounded=0;" parent="1" vertex="1">
          <mxGeometry x="1020.0799999999999" y="596" width="60" height="18" as="geometry" />
        </mxCell>
        <mxCell id="Q722ckxabsYqj8SurIKe-179" value="&lt;font style=&quot;font-size: 14px;&quot;&gt;$$cs$$&lt;/font&gt;" style="text;html=1;align=center;verticalAlign=middle;whiteSpace=wrap;rounded=0;" parent="1" vertex="1">
          <mxGeometry x="1147.34" y="595" width="60" height="18" as="geometry" />
        </mxCell>
        <mxCell id="6Uvs3lZ900TofVNQGSp9-1" value="&lt;font style=&quot;font-size: 24px;&quot;&gt;$$&amp;gt;$$&lt;/font&gt;" style="ellipse;whiteSpace=wrap;html=1;aspect=fixed;fillColor=#F0F0F0;" parent="1" vertex="1">
          <mxGeometry x="-880.75" y="220.25" width="40" height="40" as="geometry" />
        </mxCell>
        <mxCell id="6Uvs3lZ900TofVNQGSp9-2" value="" style="endArrow=classic;html=1;rounded=0;entryX=0;entryY=0;entryDx=0;entryDy=0;exitX=1;exitY=0.5;exitDx=0;exitDy=0;" parent="1" source="6Uvs3lZ900TofVNQGSp9-308" target="6Uvs3lZ900TofVNQGSp9-1" edge="1">
          <mxGeometry width="50" height="50" relative="1" as="geometry">
            <mxPoint x="-940" y="220" as="sourcePoint" />
            <mxPoint x="-880.75" y="201.25" as="targetPoint" />
            <Array as="points">
              <mxPoint x="-912" y="200" />
            </Array>
          </mxGeometry>
        </mxCell>
        <mxCell id="6Uvs3lZ900TofVNQGSp9-3" value="" style="endArrow=classic;html=1;rounded=0;entryX=0;entryY=1;entryDx=0;entryDy=0;exitX=1;exitY=0.5;exitDx=0;exitDy=0;" parent="1" source="6Uvs3lZ900TofVNQGSp9-312" target="6Uvs3lZ900TofVNQGSp9-1" edge="1">
          <mxGeometry width="50" height="50" relative="1" as="geometry">
            <mxPoint x="-940" y="290" as="sourcePoint" />
            <mxPoint x="-890.75" y="271.25" as="targetPoint" />
            <Array as="points">
              <mxPoint x="-920" y="280" />
            </Array>
          </mxGeometry>
        </mxCell>
        <mxCell id="6Uvs3lZ900TofVNQGSp9-4" value="" style="endArrow=classic;html=1;rounded=0;entryX=0;entryY=0.5;entryDx=0;entryDy=0;exitX=1;exitY=0;exitDx=0;exitDy=0;" parent="1" source="6Uvs3lZ900TofVNQGSp9-1" target="6Uvs3lZ900TofVNQGSp9-7" edge="1">
          <mxGeometry width="50" height="50" relative="1" as="geometry">
            <mxPoint x="-870.75" y="321.25" as="sourcePoint" />
            <mxPoint x="-820.75" y="271.25" as="targetPoint" />
            <Array as="points">
              <mxPoint x="-820" y="200" />
            </Array>
          </mxGeometry>
        </mxCell>
        <mxCell id="6Uvs3lZ900TofVNQGSp9-5" value="" style="group" parent="1" vertex="1" connectable="0">
          <mxGeometry x="-770" y="170.25" width="40" height="60" as="geometry" />
        </mxCell>
        <mxCell id="6Uvs3lZ900TofVNQGSp9-6" value="" style="group;strokeWidth=1;fillColor=#9A9B9E;strokeColor=default;container=0;" parent="6Uvs3lZ900TofVNQGSp9-5" vertex="1" connectable="0">
          <mxGeometry width="40" height="60" as="geometry" />
        </mxCell>
        <mxCell id="6Uvs3lZ900TofVNQGSp9-7" value="" style="rounded=0;whiteSpace=wrap;html=1;fillColor=#9A9B9E;" parent="6Uvs3lZ900TofVNQGSp9-5" vertex="1">
          <mxGeometry width="40" height="60" as="geometry" />
        </mxCell>
        <mxCell id="6Uvs3lZ900TofVNQGSp9-8" value="" style="triangle;whiteSpace=wrap;html=1;rotation=90;fillColor=#9A9B9E;" parent="6Uvs3lZ900TofVNQGSp9-5" vertex="1">
          <mxGeometry x="10" y="-10" width="20" height="40" as="geometry" />
        </mxCell>
        <mxCell id="6Uvs3lZ900TofVNQGSp9-9" value="" style="group" parent="1" vertex="1" connectable="0">
          <mxGeometry x="-540" y="210.25" width="40" height="60" as="geometry" />
        </mxCell>
        <mxCell id="6Uvs3lZ900TofVNQGSp9-10" value="" style="group;strokeWidth=1;fillColor=#9A9B9E;strokeColor=default;container=0;" parent="6Uvs3lZ900TofVNQGSp9-9" vertex="1" connectable="0">
          <mxGeometry width="40" height="60" as="geometry" />
        </mxCell>
        <mxCell id="6Uvs3lZ900TofVNQGSp9-11" value="" style="rounded=0;whiteSpace=wrap;html=1;fillColor=#9A9B9E;" parent="6Uvs3lZ900TofVNQGSp9-9" vertex="1">
          <mxGeometry width="40" height="60" as="geometry" />
        </mxCell>
        <mxCell id="6Uvs3lZ900TofVNQGSp9-12" value="" style="triangle;whiteSpace=wrap;html=1;rotation=90;fillColor=#9A9B9E;" parent="6Uvs3lZ900TofVNQGSp9-9" vertex="1">
          <mxGeometry x="10" y="-10" width="20" height="40" as="geometry" />
        </mxCell>
        <mxCell id="6Uvs3lZ900TofVNQGSp9-19" value="" style="group" parent="1" vertex="1" connectable="0">
          <mxGeometry x="-770" y="250" width="40" height="60" as="geometry" />
        </mxCell>
        <mxCell id="6Uvs3lZ900TofVNQGSp9-20" value="" style="group;strokeWidth=1;fillColor=#9A9B9E;strokeColor=default;container=0;" parent="6Uvs3lZ900TofVNQGSp9-19" vertex="1" connectable="0">
          <mxGeometry width="40" height="60" as="geometry" />
        </mxCell>
        <mxCell id="6Uvs3lZ900TofVNQGSp9-21" value="" style="rounded=0;whiteSpace=wrap;html=1;fillColor=#9A9B9E;" parent="6Uvs3lZ900TofVNQGSp9-19" vertex="1">
          <mxGeometry width="40" height="60" as="geometry" />
        </mxCell>
        <mxCell id="6Uvs3lZ900TofVNQGSp9-22" value="" style="triangle;whiteSpace=wrap;html=1;rotation=90;fillColor=#9A9B9E;" parent="6Uvs3lZ900TofVNQGSp9-19" vertex="1">
          <mxGeometry x="10" y="-10" width="20" height="40" as="geometry" />
        </mxCell>
        <mxCell id="6Uvs3lZ900TofVNQGSp9-52" value="&lt;font style=&quot;font-size: 24px;&quot;&gt;$$&amp;gt;$$&lt;/font&gt;" style="ellipse;whiteSpace=wrap;html=1;aspect=fixed;fillColor=#F0F0F0;" parent="1" vertex="1">
          <mxGeometry x="-650" y="220.25" width="40" height="40" as="geometry" />
        </mxCell>
        <mxCell id="6Uvs3lZ900TofVNQGSp9-53" value="&lt;font style=&quot;font-size: 24px;&quot;&gt;$$&amp;gt;$$&lt;/font&gt;" style="ellipse;whiteSpace=wrap;html=1;aspect=fixed;fillColor=#F0F0F0;" parent="1" vertex="1">
          <mxGeometry x="-650" y="380" width="40" height="40" as="geometry" />
        </mxCell>
        <mxCell id="6Uvs3lZ900TofVNQGSp9-58" value="" style="group" parent="1" vertex="1" connectable="0">
          <mxGeometry x="-540" y="370" width="40" height="60" as="geometry" />
        </mxCell>
        <mxCell id="6Uvs3lZ900TofVNQGSp9-59" value="" style="group;strokeWidth=1;fillColor=#9A9B9E;strokeColor=default;container=0;" parent="6Uvs3lZ900TofVNQGSp9-58" vertex="1" connectable="0">
          <mxGeometry width="40" height="60" as="geometry" />
        </mxCell>
        <mxCell id="6Uvs3lZ900TofVNQGSp9-60" value="" style="rounded=0;whiteSpace=wrap;html=1;fillColor=#9A9B9E;" parent="6Uvs3lZ900TofVNQGSp9-58" vertex="1">
          <mxGeometry width="40" height="60" as="geometry" />
        </mxCell>
        <mxCell id="6Uvs3lZ900TofVNQGSp9-61" value="" style="triangle;whiteSpace=wrap;html=1;rotation=90;fillColor=#9A9B9E;" parent="6Uvs3lZ900TofVNQGSp9-58" vertex="1">
          <mxGeometry x="10" y="-10" width="20" height="40" as="geometry" />
        </mxCell>
        <mxCell id="6Uvs3lZ900TofVNQGSp9-65" value="" style="endArrow=classic;html=1;rounded=0;entryX=0;entryY=0.5;entryDx=0;entryDy=0;exitX=1;exitY=1;exitDx=0;exitDy=0;" parent="1" source="6Uvs3lZ900TofVNQGSp9-1" target="6Uvs3lZ900TofVNQGSp9-21" edge="1">
          <mxGeometry width="50" height="50" relative="1" as="geometry">
            <mxPoint x="-847" y="280" as="sourcePoint" />
            <mxPoint x="-800" y="310" as="targetPoint" />
            <Array as="points">
              <mxPoint x="-820" y="280" />
            </Array>
          </mxGeometry>
        </mxCell>
        <mxCell id="6Uvs3lZ900TofVNQGSp9-66" value="&lt;font style=&quot;font-size: 24px;&quot;&gt;$$&amp;gt;$$&lt;/font&gt;" style="ellipse;whiteSpace=wrap;html=1;aspect=fixed;fillColor=#F0F0F0;" parent="1" vertex="1">
          <mxGeometry x="-880.75" y="380" width="40" height="40" as="geometry" />
        </mxCell>
        <mxCell id="6Uvs3lZ900TofVNQGSp9-67" value="" style="endArrow=classic;html=1;rounded=0;entryX=0;entryY=0;entryDx=0;entryDy=0;exitX=1;exitY=0.5;exitDx=0;exitDy=0;" parent="1" source="6Uvs3lZ900TofVNQGSp9-316" target="6Uvs3lZ900TofVNQGSp9-66" edge="1">
          <mxGeometry width="50" height="50" relative="1" as="geometry">
            <mxPoint x="-930" y="340" as="sourcePoint" />
            <mxPoint x="-880.75" y="361" as="targetPoint" />
            <Array as="points">
              <mxPoint x="-912" y="359.75" />
            </Array>
          </mxGeometry>
        </mxCell>
        <mxCell id="6Uvs3lZ900TofVNQGSp9-68" value="" style="endArrow=classic;html=1;rounded=0;entryX=0;entryY=1;entryDx=0;entryDy=0;exitX=1;exitY=0.5;exitDx=0;exitDy=0;" parent="1" source="6Uvs3lZ900TofVNQGSp9-320" target="6Uvs3lZ900TofVNQGSp9-66" edge="1">
          <mxGeometry width="50" height="50" relative="1" as="geometry">
            <mxPoint x="-940" y="450" as="sourcePoint" />
            <mxPoint x="-890.75" y="431" as="targetPoint" />
            <Array as="points">
              <mxPoint x="-920" y="439.75" />
            </Array>
          </mxGeometry>
        </mxCell>
        <mxCell id="6Uvs3lZ900TofVNQGSp9-69" value="" style="endArrow=classic;html=1;rounded=0;entryX=0;entryY=0.5;entryDx=0;entryDy=0;exitX=1;exitY=0;exitDx=0;exitDy=0;" parent="1" source="6Uvs3lZ900TofVNQGSp9-66" target="6Uvs3lZ900TofVNQGSp9-72" edge="1">
          <mxGeometry width="50" height="50" relative="1" as="geometry">
            <mxPoint x="-870.75" y="481" as="sourcePoint" />
            <mxPoint x="-820.75" y="431" as="targetPoint" />
            <Array as="points">
              <mxPoint x="-820" y="359.75" />
            </Array>
          </mxGeometry>
        </mxCell>
        <mxCell id="6Uvs3lZ900TofVNQGSp9-70" value="" style="group" parent="1" vertex="1" connectable="0">
          <mxGeometry x="-770" y="330" width="40" height="60" as="geometry" />
        </mxCell>
        <mxCell id="6Uvs3lZ900TofVNQGSp9-71" value="" style="group;strokeWidth=1;fillColor=#9A9B9E;strokeColor=default;container=0;" parent="6Uvs3lZ900TofVNQGSp9-70" vertex="1" connectable="0">
          <mxGeometry width="40" height="60" as="geometry" />
        </mxCell>
        <mxCell id="6Uvs3lZ900TofVNQGSp9-72" value="" style="rounded=0;whiteSpace=wrap;html=1;fillColor=#9A9B9E;" parent="6Uvs3lZ900TofVNQGSp9-70" vertex="1">
          <mxGeometry width="40" height="60" as="geometry" />
        </mxCell>
        <mxCell id="6Uvs3lZ900TofVNQGSp9-73" value="" style="triangle;whiteSpace=wrap;html=1;rotation=90;fillColor=#9A9B9E;" parent="6Uvs3lZ900TofVNQGSp9-70" vertex="1">
          <mxGeometry x="10" y="-10" width="20" height="40" as="geometry" />
        </mxCell>
        <mxCell id="6Uvs3lZ900TofVNQGSp9-74" value="" style="group" parent="1" vertex="1" connectable="0">
          <mxGeometry x="-770" y="409.75" width="40" height="60" as="geometry" />
        </mxCell>
        <mxCell id="6Uvs3lZ900TofVNQGSp9-75" value="" style="group;strokeWidth=1;fillColor=#9A9B9E;strokeColor=default;container=0;" parent="6Uvs3lZ900TofVNQGSp9-74" vertex="1" connectable="0">
          <mxGeometry width="40" height="60" as="geometry" />
        </mxCell>
        <mxCell id="6Uvs3lZ900TofVNQGSp9-76" value="" style="rounded=0;whiteSpace=wrap;html=1;fillColor=#9A9B9E;" parent="6Uvs3lZ900TofVNQGSp9-74" vertex="1">
          <mxGeometry width="40" height="60" as="geometry" />
        </mxCell>
        <mxCell id="6Uvs3lZ900TofVNQGSp9-77" value="" style="triangle;whiteSpace=wrap;html=1;rotation=90;fillColor=#9A9B9E;" parent="6Uvs3lZ900TofVNQGSp9-74" vertex="1">
          <mxGeometry x="10" y="-10" width="20" height="40" as="geometry" />
        </mxCell>
        <mxCell id="6Uvs3lZ900TofVNQGSp9-78" value="" style="endArrow=classic;html=1;rounded=0;entryX=0;entryY=0.5;entryDx=0;entryDy=0;exitX=1;exitY=1;exitDx=0;exitDy=0;" parent="1" source="6Uvs3lZ900TofVNQGSp9-66" target="6Uvs3lZ900TofVNQGSp9-76" edge="1">
          <mxGeometry width="50" height="50" relative="1" as="geometry">
            <mxPoint x="-847" y="439.75" as="sourcePoint" />
            <mxPoint x="-800" y="469.75" as="targetPoint" />
            <Array as="points">
              <mxPoint x="-820" y="439.75" />
            </Array>
          </mxGeometry>
        </mxCell>
        <mxCell id="6Uvs3lZ900TofVNQGSp9-79" value="" style="endArrow=classic;html=1;rounded=0;entryX=0;entryY=0;entryDx=0;entryDy=0;exitX=1;exitY=0.5;exitDx=0;exitDy=0;" parent="1" source="6Uvs3lZ900TofVNQGSp9-7" target="6Uvs3lZ900TofVNQGSp9-52" edge="1">
          <mxGeometry width="50" height="50" relative="1" as="geometry">
            <mxPoint x="-710" y="199.25" as="sourcePoint" />
            <mxPoint x="-625" y="225" as="targetPoint" />
            <Array as="points">
              <mxPoint x="-680" y="200" />
            </Array>
          </mxGeometry>
        </mxCell>
        <mxCell id="6Uvs3lZ900TofVNQGSp9-81" value="" style="endArrow=classic;html=1;rounded=0;exitX=1;exitY=0.5;exitDx=0;exitDy=0;entryX=0;entryY=1;entryDx=0;entryDy=0;" parent="1" source="6Uvs3lZ900TofVNQGSp9-72" target="6Uvs3lZ900TofVNQGSp9-52" edge="1">
          <mxGeometry width="50" height="50" relative="1" as="geometry">
            <mxPoint x="-700" y="380" as="sourcePoint" />
            <mxPoint x="-650" y="330" as="targetPoint" />
            <Array as="points">
              <mxPoint x="-680" y="360" />
            </Array>
          </mxGeometry>
        </mxCell>
        <mxCell id="6Uvs3lZ900TofVNQGSp9-82" value="" style="endArrow=classic;html=1;rounded=0;exitX=1;exitY=0.5;exitDx=0;exitDy=0;entryX=0;entryY=0;entryDx=0;entryDy=0;" parent="1" source="6Uvs3lZ900TofVNQGSp9-21" target="6Uvs3lZ900TofVNQGSp9-53" edge="1">
          <mxGeometry width="50" height="50" relative="1" as="geometry">
            <mxPoint x="-690" y="330" as="sourcePoint" />
            <mxPoint x="-640" y="280" as="targetPoint" />
            <Array as="points">
              <mxPoint x="-680" y="280" />
            </Array>
          </mxGeometry>
        </mxCell>
        <mxCell id="6Uvs3lZ900TofVNQGSp9-83" value="" style="endArrow=classic;html=1;rounded=0;exitX=1;exitY=0.5;exitDx=0;exitDy=0;entryX=0;entryY=1;entryDx=0;entryDy=0;" parent="1" source="6Uvs3lZ900TofVNQGSp9-76" target="6Uvs3lZ900TofVNQGSp9-53" edge="1">
          <mxGeometry width="50" height="50" relative="1" as="geometry">
            <mxPoint x="-660" y="470" as="sourcePoint" />
            <mxPoint x="-610" y="420" as="targetPoint" />
            <Array as="points">
              <mxPoint x="-680" y="440" />
            </Array>
          </mxGeometry>
        </mxCell>
        <mxCell id="6Uvs3lZ900TofVNQGSp9-85" value="" style="endArrow=classic;html=1;rounded=0;exitX=1;exitY=0.5;exitDx=0;exitDy=0;entryX=0;entryY=0.5;entryDx=0;entryDy=0;" parent="1" source="6Uvs3lZ900TofVNQGSp9-52" target="6Uvs3lZ900TofVNQGSp9-11" edge="1">
          <mxGeometry width="50" height="50" relative="1" as="geometry">
            <mxPoint x="-570" y="350" as="sourcePoint" />
            <mxPoint x="-520" y="300" as="targetPoint" />
          </mxGeometry>
        </mxCell>
        <mxCell id="6Uvs3lZ900TofVNQGSp9-86" value="" style="endArrow=classic;html=1;rounded=0;exitX=1;exitY=0.5;exitDx=0;exitDy=0;entryX=0;entryY=0.5;entryDx=0;entryDy=0;" parent="1" source="6Uvs3lZ900TofVNQGSp9-53" target="6Uvs3lZ900TofVNQGSp9-60" edge="1">
          <mxGeometry width="50" height="50" relative="1" as="geometry">
            <mxPoint x="-590" y="380" as="sourcePoint" />
            <mxPoint x="-540" y="330" as="targetPoint" />
          </mxGeometry>
        </mxCell>
        <mxCell id="6Uvs3lZ900TofVNQGSp9-87" value="&lt;font style=&quot;font-size: 24px;&quot;&gt;$$&amp;gt;$$&lt;/font&gt;" style="ellipse;whiteSpace=wrap;html=1;aspect=fixed;fillColor=#F0F0F0;" parent="1" vertex="1">
          <mxGeometry x="-880.75" y="538.25" width="40" height="40" as="geometry" />
        </mxCell>
        <mxCell id="6Uvs3lZ900TofVNQGSp9-88" value="" style="endArrow=classic;html=1;rounded=0;entryX=0;entryY=0;entryDx=0;entryDy=0;exitX=1;exitY=0.5;exitDx=0;exitDy=0;" parent="1" source="6Uvs3lZ900TofVNQGSp9-324" target="6Uvs3lZ900TofVNQGSp9-87" edge="1">
          <mxGeometry width="50" height="50" relative="1" as="geometry">
            <mxPoint x="-940" y="500" as="sourcePoint" />
            <mxPoint x="-880.75" y="519.25" as="targetPoint" />
            <Array as="points">
              <mxPoint x="-912" y="518" />
            </Array>
          </mxGeometry>
        </mxCell>
        <mxCell id="6Uvs3lZ900TofVNQGSp9-89" value="" style="endArrow=classic;html=1;rounded=0;entryX=0;entryY=1;entryDx=0;entryDy=0;exitX=1;exitY=0.5;exitDx=0;exitDy=0;" parent="1" source="6Uvs3lZ900TofVNQGSp9-328" target="6Uvs3lZ900TofVNQGSp9-87" edge="1">
          <mxGeometry width="50" height="50" relative="1" as="geometry">
            <mxPoint x="-950" y="610" as="sourcePoint" />
            <mxPoint x="-890.75" y="589.25" as="targetPoint" />
            <Array as="points">
              <mxPoint x="-920" y="598" />
            </Array>
          </mxGeometry>
        </mxCell>
        <mxCell id="6Uvs3lZ900TofVNQGSp9-90" value="" style="endArrow=classic;html=1;rounded=0;entryX=0;entryY=0.5;entryDx=0;entryDy=0;exitX=1;exitY=0;exitDx=0;exitDy=0;" parent="1" source="6Uvs3lZ900TofVNQGSp9-87" target="6Uvs3lZ900TofVNQGSp9-93" edge="1">
          <mxGeometry width="50" height="50" relative="1" as="geometry">
            <mxPoint x="-870.75" y="639.25" as="sourcePoint" />
            <mxPoint x="-820.75" y="589.25" as="targetPoint" />
            <Array as="points">
              <mxPoint x="-820" y="518" />
            </Array>
          </mxGeometry>
        </mxCell>
        <mxCell id="6Uvs3lZ900TofVNQGSp9-91" value="" style="group" parent="1" vertex="1" connectable="0">
          <mxGeometry x="-770" y="488.25" width="40" height="60" as="geometry" />
        </mxCell>
        <mxCell id="6Uvs3lZ900TofVNQGSp9-92" value="" style="group;strokeWidth=1;fillColor=#9A9B9E;strokeColor=default;container=0;" parent="6Uvs3lZ900TofVNQGSp9-91" vertex="1" connectable="0">
          <mxGeometry width="40" height="60" as="geometry" />
        </mxCell>
        <mxCell id="6Uvs3lZ900TofVNQGSp9-93" value="" style="rounded=0;whiteSpace=wrap;html=1;fillColor=#9A9B9E;" parent="6Uvs3lZ900TofVNQGSp9-91" vertex="1">
          <mxGeometry width="40" height="60" as="geometry" />
        </mxCell>
        <mxCell id="6Uvs3lZ900TofVNQGSp9-94" value="" style="triangle;whiteSpace=wrap;html=1;rotation=90;fillColor=#9A9B9E;" parent="6Uvs3lZ900TofVNQGSp9-91" vertex="1">
          <mxGeometry x="10" y="-10" width="20" height="40" as="geometry" />
        </mxCell>
        <mxCell id="6Uvs3lZ900TofVNQGSp9-95" value="" style="group" parent="1" vertex="1" connectable="0">
          <mxGeometry x="-540" y="528.25" width="40" height="60" as="geometry" />
        </mxCell>
        <mxCell id="6Uvs3lZ900TofVNQGSp9-96" value="" style="group;strokeWidth=1;fillColor=#9A9B9E;strokeColor=default;container=0;" parent="6Uvs3lZ900TofVNQGSp9-95" vertex="1" connectable="0">
          <mxGeometry width="40" height="60" as="geometry" />
        </mxCell>
        <mxCell id="6Uvs3lZ900TofVNQGSp9-97" value="" style="rounded=0;whiteSpace=wrap;html=1;fillColor=#9A9B9E;" parent="6Uvs3lZ900TofVNQGSp9-95" vertex="1">
          <mxGeometry width="40" height="60" as="geometry" />
        </mxCell>
        <mxCell id="6Uvs3lZ900TofVNQGSp9-98" value="" style="triangle;whiteSpace=wrap;html=1;rotation=90;fillColor=#9A9B9E;" parent="6Uvs3lZ900TofVNQGSp9-95" vertex="1">
          <mxGeometry x="10" y="-10" width="20" height="40" as="geometry" />
        </mxCell>
        <mxCell id="6Uvs3lZ900TofVNQGSp9-99" value="" style="group" parent="1" vertex="1" connectable="0">
          <mxGeometry x="-770" y="568" width="40" height="60" as="geometry" />
        </mxCell>
        <mxCell id="6Uvs3lZ900TofVNQGSp9-100" value="" style="group;strokeWidth=1;fillColor=#9A9B9E;strokeColor=default;container=0;" parent="6Uvs3lZ900TofVNQGSp9-99" vertex="1" connectable="0">
          <mxGeometry width="40" height="60" as="geometry" />
        </mxCell>
        <mxCell id="6Uvs3lZ900TofVNQGSp9-101" value="" style="rounded=0;whiteSpace=wrap;html=1;fillColor=#9A9B9E;" parent="6Uvs3lZ900TofVNQGSp9-99" vertex="1">
          <mxGeometry width="40" height="60" as="geometry" />
        </mxCell>
        <mxCell id="6Uvs3lZ900TofVNQGSp9-102" value="" style="triangle;whiteSpace=wrap;html=1;rotation=90;fillColor=#9A9B9E;" parent="6Uvs3lZ900TofVNQGSp9-99" vertex="1">
          <mxGeometry x="10" y="-10" width="20" height="40" as="geometry" />
        </mxCell>
        <mxCell id="6Uvs3lZ900TofVNQGSp9-103" value="&lt;font style=&quot;font-size: 24px;&quot;&gt;$$&amp;gt;$$&lt;/font&gt;" style="ellipse;whiteSpace=wrap;html=1;aspect=fixed;fillColor=#F0F0F0;" parent="1" vertex="1">
          <mxGeometry x="-650" y="538.25" width="40" height="40" as="geometry" />
        </mxCell>
        <mxCell id="6Uvs3lZ900TofVNQGSp9-104" value="&lt;font style=&quot;font-size: 24px;&quot;&gt;$$&amp;gt;$$&lt;/font&gt;" style="ellipse;whiteSpace=wrap;html=1;aspect=fixed;fillColor=#F0F0F0;" parent="1" vertex="1">
          <mxGeometry x="-650" y="698" width="40" height="40" as="geometry" />
        </mxCell>
        <mxCell id="6Uvs3lZ900TofVNQGSp9-105" value="" style="group" parent="1" vertex="1" connectable="0">
          <mxGeometry x="-540" y="688" width="40" height="60" as="geometry" />
        </mxCell>
        <mxCell id="6Uvs3lZ900TofVNQGSp9-106" value="" style="group;strokeWidth=1;fillColor=#9A9B9E;strokeColor=default;container=0;" parent="6Uvs3lZ900TofVNQGSp9-105" vertex="1" connectable="0">
          <mxGeometry width="40" height="60" as="geometry" />
        </mxCell>
        <mxCell id="6Uvs3lZ900TofVNQGSp9-107" value="" style="rounded=0;whiteSpace=wrap;html=1;fillColor=#9A9B9E;" parent="6Uvs3lZ900TofVNQGSp9-105" vertex="1">
          <mxGeometry width="40" height="60" as="geometry" />
        </mxCell>
        <mxCell id="6Uvs3lZ900TofVNQGSp9-108" value="" style="triangle;whiteSpace=wrap;html=1;rotation=90;fillColor=#9A9B9E;" parent="6Uvs3lZ900TofVNQGSp9-105" vertex="1">
          <mxGeometry x="10" y="-10" width="20" height="40" as="geometry" />
        </mxCell>
        <mxCell id="6Uvs3lZ900TofVNQGSp9-109" value="" style="endArrow=classic;html=1;rounded=0;entryX=0;entryY=0.5;entryDx=0;entryDy=0;exitX=1;exitY=1;exitDx=0;exitDy=0;" parent="1" source="6Uvs3lZ900TofVNQGSp9-87" target="6Uvs3lZ900TofVNQGSp9-101" edge="1">
          <mxGeometry width="50" height="50" relative="1" as="geometry">
            <mxPoint x="-847" y="598" as="sourcePoint" />
            <mxPoint x="-800" y="628" as="targetPoint" />
            <Array as="points">
              <mxPoint x="-820" y="598" />
            </Array>
          </mxGeometry>
        </mxCell>
        <mxCell id="6Uvs3lZ900TofVNQGSp9-110" value="&lt;font style=&quot;font-size: 24px;&quot;&gt;$$&amp;gt;$$&lt;/font&gt;" style="ellipse;whiteSpace=wrap;html=1;aspect=fixed;fillColor=#F0F0F0;" parent="1" vertex="1">
          <mxGeometry x="-880.75" y="698" width="40" height="40" as="geometry" />
        </mxCell>
        <mxCell id="6Uvs3lZ900TofVNQGSp9-111" value="" style="endArrow=classic;html=1;rounded=0;entryX=0;entryY=0;entryDx=0;entryDy=0;exitX=1;exitY=0.5;exitDx=0;exitDy=0;" parent="1" source="6Uvs3lZ900TofVNQGSp9-332" target="6Uvs3lZ900TofVNQGSp9-110" edge="1">
          <mxGeometry width="50" height="50" relative="1" as="geometry">
            <mxPoint x="-940" y="660" as="sourcePoint" />
            <mxPoint x="-880.75" y="679" as="targetPoint" />
            <Array as="points">
              <mxPoint x="-912" y="677.75" />
            </Array>
          </mxGeometry>
        </mxCell>
        <mxCell id="6Uvs3lZ900TofVNQGSp9-112" value="" style="endArrow=classic;html=1;rounded=0;entryX=0;entryY=1;entryDx=0;entryDy=0;exitX=1;exitY=0.5;exitDx=0;exitDy=0;" parent="1" source="6Uvs3lZ900TofVNQGSp9-336" target="6Uvs3lZ900TofVNQGSp9-110" edge="1">
          <mxGeometry width="50" height="50" relative="1" as="geometry">
            <mxPoint x="-950" y="780" as="sourcePoint" />
            <mxPoint x="-890.75" y="749" as="targetPoint" />
            <Array as="points">
              <mxPoint x="-920" y="757.75" />
            </Array>
          </mxGeometry>
        </mxCell>
        <mxCell id="6Uvs3lZ900TofVNQGSp9-113" value="" style="endArrow=classic;html=1;rounded=0;entryX=0;entryY=0.5;entryDx=0;entryDy=0;exitX=1;exitY=0;exitDx=0;exitDy=0;" parent="1" source="6Uvs3lZ900TofVNQGSp9-110" target="6Uvs3lZ900TofVNQGSp9-116" edge="1">
          <mxGeometry width="50" height="50" relative="1" as="geometry">
            <mxPoint x="-870.75" y="799" as="sourcePoint" />
            <mxPoint x="-820.75" y="749" as="targetPoint" />
            <Array as="points">
              <mxPoint x="-820" y="677.75" />
            </Array>
          </mxGeometry>
        </mxCell>
        <mxCell id="6Uvs3lZ900TofVNQGSp9-114" value="" style="group" parent="1" vertex="1" connectable="0">
          <mxGeometry x="-770" y="648" width="40" height="60" as="geometry" />
        </mxCell>
        <mxCell id="6Uvs3lZ900TofVNQGSp9-115" value="" style="group;strokeWidth=1;fillColor=#9A9B9E;strokeColor=default;container=0;" parent="6Uvs3lZ900TofVNQGSp9-114" vertex="1" connectable="0">
          <mxGeometry width="40" height="60" as="geometry" />
        </mxCell>
        <mxCell id="6Uvs3lZ900TofVNQGSp9-116" value="" style="rounded=0;whiteSpace=wrap;html=1;fillColor=#9A9B9E;" parent="6Uvs3lZ900TofVNQGSp9-114" vertex="1">
          <mxGeometry width="40" height="60" as="geometry" />
        </mxCell>
        <mxCell id="6Uvs3lZ900TofVNQGSp9-117" value="" style="triangle;whiteSpace=wrap;html=1;rotation=90;fillColor=#9A9B9E;" parent="6Uvs3lZ900TofVNQGSp9-114" vertex="1">
          <mxGeometry x="10" y="-10" width="20" height="40" as="geometry" />
        </mxCell>
        <mxCell id="6Uvs3lZ900TofVNQGSp9-118" value="" style="group" parent="1" vertex="1" connectable="0">
          <mxGeometry x="-770" y="727.75" width="40" height="60" as="geometry" />
        </mxCell>
        <mxCell id="6Uvs3lZ900TofVNQGSp9-119" value="" style="group;strokeWidth=1;fillColor=#9A9B9E;strokeColor=default;container=0;" parent="6Uvs3lZ900TofVNQGSp9-118" vertex="1" connectable="0">
          <mxGeometry width="40" height="60" as="geometry" />
        </mxCell>
        <mxCell id="6Uvs3lZ900TofVNQGSp9-120" value="" style="rounded=0;whiteSpace=wrap;html=1;fillColor=#9A9B9E;" parent="6Uvs3lZ900TofVNQGSp9-118" vertex="1">
          <mxGeometry width="40" height="60" as="geometry" />
        </mxCell>
        <mxCell id="6Uvs3lZ900TofVNQGSp9-121" value="" style="triangle;whiteSpace=wrap;html=1;rotation=90;fillColor=#9A9B9E;" parent="6Uvs3lZ900TofVNQGSp9-118" vertex="1">
          <mxGeometry x="10" y="-10" width="20" height="40" as="geometry" />
        </mxCell>
        <mxCell id="6Uvs3lZ900TofVNQGSp9-122" value="" style="endArrow=classic;html=1;rounded=0;entryX=0;entryY=0.5;entryDx=0;entryDy=0;exitX=1;exitY=1;exitDx=0;exitDy=0;" parent="1" source="6Uvs3lZ900TofVNQGSp9-110" target="6Uvs3lZ900TofVNQGSp9-120" edge="1">
          <mxGeometry width="50" height="50" relative="1" as="geometry">
            <mxPoint x="-847" y="757.75" as="sourcePoint" />
            <mxPoint x="-800" y="787.75" as="targetPoint" />
            <Array as="points">
              <mxPoint x="-820" y="757.75" />
            </Array>
          </mxGeometry>
        </mxCell>
        <mxCell id="6Uvs3lZ900TofVNQGSp9-123" value="" style="endArrow=classic;html=1;rounded=0;entryX=0;entryY=0;entryDx=0;entryDy=0;exitX=1;exitY=0.5;exitDx=0;exitDy=0;" parent="1" source="6Uvs3lZ900TofVNQGSp9-93" target="6Uvs3lZ900TofVNQGSp9-103" edge="1">
          <mxGeometry width="50" height="50" relative="1" as="geometry">
            <mxPoint x="-710" y="517.25" as="sourcePoint" />
            <mxPoint x="-625" y="543" as="targetPoint" />
            <Array as="points">
              <mxPoint x="-680" y="518" />
            </Array>
          </mxGeometry>
        </mxCell>
        <mxCell id="6Uvs3lZ900TofVNQGSp9-124" value="" style="endArrow=classic;html=1;rounded=0;exitX=1;exitY=0.5;exitDx=0;exitDy=0;entryX=0;entryY=1;entryDx=0;entryDy=0;" parent="1" source="6Uvs3lZ900TofVNQGSp9-116" target="6Uvs3lZ900TofVNQGSp9-103" edge="1">
          <mxGeometry width="50" height="50" relative="1" as="geometry">
            <mxPoint x="-700" y="698" as="sourcePoint" />
            <mxPoint x="-650" y="648" as="targetPoint" />
            <Array as="points">
              <mxPoint x="-680" y="678" />
            </Array>
          </mxGeometry>
        </mxCell>
        <mxCell id="6Uvs3lZ900TofVNQGSp9-125" value="" style="endArrow=classic;html=1;rounded=0;exitX=1;exitY=0.5;exitDx=0;exitDy=0;entryX=0;entryY=0;entryDx=0;entryDy=0;" parent="1" source="6Uvs3lZ900TofVNQGSp9-101" target="6Uvs3lZ900TofVNQGSp9-104" edge="1">
          <mxGeometry width="50" height="50" relative="1" as="geometry">
            <mxPoint x="-690" y="648" as="sourcePoint" />
            <mxPoint x="-640" y="598" as="targetPoint" />
            <Array as="points">
              <mxPoint x="-680" y="598" />
            </Array>
          </mxGeometry>
        </mxCell>
        <mxCell id="6Uvs3lZ900TofVNQGSp9-126" value="" style="endArrow=classic;html=1;rounded=0;exitX=1;exitY=0.5;exitDx=0;exitDy=0;entryX=0;entryY=1;entryDx=0;entryDy=0;" parent="1" source="6Uvs3lZ900TofVNQGSp9-120" target="6Uvs3lZ900TofVNQGSp9-104" edge="1">
          <mxGeometry width="50" height="50" relative="1" as="geometry">
            <mxPoint x="-660" y="788" as="sourcePoint" />
            <mxPoint x="-610" y="738" as="targetPoint" />
            <Array as="points">
              <mxPoint x="-680" y="758" />
            </Array>
          </mxGeometry>
        </mxCell>
        <mxCell id="6Uvs3lZ900TofVNQGSp9-127" value="" style="endArrow=classic;html=1;rounded=0;exitX=1;exitY=0.5;exitDx=0;exitDy=0;entryX=0;entryY=0.5;entryDx=0;entryDy=0;" parent="1" source="6Uvs3lZ900TofVNQGSp9-103" target="6Uvs3lZ900TofVNQGSp9-97" edge="1">
          <mxGeometry width="50" height="50" relative="1" as="geometry">
            <mxPoint x="-570" y="668" as="sourcePoint" />
            <mxPoint x="-520" y="618" as="targetPoint" />
          </mxGeometry>
        </mxCell>
        <mxCell id="6Uvs3lZ900TofVNQGSp9-128" value="" style="endArrow=classic;html=1;rounded=0;exitX=1;exitY=0.5;exitDx=0;exitDy=0;entryX=0;entryY=0.5;entryDx=0;entryDy=0;" parent="1" source="6Uvs3lZ900TofVNQGSp9-104" target="6Uvs3lZ900TofVNQGSp9-107" edge="1">
          <mxGeometry width="50" height="50" relative="1" as="geometry">
            <mxPoint x="-590" y="698" as="sourcePoint" />
            <mxPoint x="-540" y="648" as="targetPoint" />
          </mxGeometry>
        </mxCell>
        <mxCell id="6Uvs3lZ900TofVNQGSp9-129" value="" style="group" parent="1" vertex="1" connectable="0">
          <mxGeometry x="-770" y="810" width="40" height="60" as="geometry" />
        </mxCell>
        <mxCell id="6Uvs3lZ900TofVNQGSp9-130" value="" style="group;strokeWidth=1;fillColor=#9A9B9E;strokeColor=default;container=0;" parent="6Uvs3lZ900TofVNQGSp9-129" vertex="1" connectable="0">
          <mxGeometry width="40" height="60" as="geometry" />
        </mxCell>
        <mxCell id="6Uvs3lZ900TofVNQGSp9-131" value="" style="rounded=0;whiteSpace=wrap;html=1;fillColor=#9A9B9E;" parent="6Uvs3lZ900TofVNQGSp9-129" vertex="1">
          <mxGeometry width="40" height="60" as="geometry" />
        </mxCell>
        <mxCell id="6Uvs3lZ900TofVNQGSp9-132" value="" style="triangle;whiteSpace=wrap;html=1;rotation=90;fillColor=#9A9B9E;" parent="6Uvs3lZ900TofVNQGSp9-129" vertex="1">
          <mxGeometry x="10" y="-10" width="20" height="40" as="geometry" />
        </mxCell>
        <mxCell id="6Uvs3lZ900TofVNQGSp9-133" value="" style="group" parent="1" vertex="1" connectable="0">
          <mxGeometry x="-770" y="890" width="40" height="60" as="geometry" />
        </mxCell>
        <mxCell id="6Uvs3lZ900TofVNQGSp9-134" value="" style="group;strokeWidth=1;fillColor=#9A9B9E;strokeColor=default;container=0;" parent="6Uvs3lZ900TofVNQGSp9-133" vertex="1" connectable="0">
          <mxGeometry width="40" height="60" as="geometry" />
        </mxCell>
        <mxCell id="6Uvs3lZ900TofVNQGSp9-135" value="" style="rounded=0;whiteSpace=wrap;html=1;fillColor=#9A9B9E;" parent="6Uvs3lZ900TofVNQGSp9-133" vertex="1">
          <mxGeometry width="40" height="60" as="geometry" />
        </mxCell>
        <mxCell id="6Uvs3lZ900TofVNQGSp9-136" value="" style="triangle;whiteSpace=wrap;html=1;rotation=90;fillColor=#9A9B9E;" parent="6Uvs3lZ900TofVNQGSp9-133" vertex="1">
          <mxGeometry x="10" y="-10" width="20" height="40" as="geometry" />
        </mxCell>
        <mxCell id="6Uvs3lZ900TofVNQGSp9-137" value="" style="group" parent="1" vertex="1" connectable="0">
          <mxGeometry x="-540" y="810" width="40" height="60" as="geometry" />
        </mxCell>
        <mxCell id="6Uvs3lZ900TofVNQGSp9-138" value="" style="group;strokeWidth=1;fillColor=#9A9B9E;strokeColor=default;container=0;" parent="6Uvs3lZ900TofVNQGSp9-137" vertex="1" connectable="0">
          <mxGeometry width="40" height="60" as="geometry" />
        </mxCell>
        <mxCell id="6Uvs3lZ900TofVNQGSp9-139" value="" style="rounded=0;whiteSpace=wrap;html=1;fillColor=#9A9B9E;" parent="6Uvs3lZ900TofVNQGSp9-137" vertex="1">
          <mxGeometry width="40" height="60" as="geometry" />
        </mxCell>
        <mxCell id="6Uvs3lZ900TofVNQGSp9-140" value="" style="triangle;whiteSpace=wrap;html=1;rotation=90;fillColor=#9A9B9E;" parent="6Uvs3lZ900TofVNQGSp9-137" vertex="1">
          <mxGeometry x="10" y="-10" width="20" height="40" as="geometry" />
        </mxCell>
        <mxCell id="6Uvs3lZ900TofVNQGSp9-141" value="" style="group" parent="1" vertex="1" connectable="0">
          <mxGeometry x="-540" y="890" width="40" height="60" as="geometry" />
        </mxCell>
        <mxCell id="6Uvs3lZ900TofVNQGSp9-142" value="" style="group;strokeWidth=1;fillColor=#9A9B9E;strokeColor=default;container=0;" parent="6Uvs3lZ900TofVNQGSp9-141" vertex="1" connectable="0">
          <mxGeometry width="40" height="60" as="geometry" />
        </mxCell>
        <mxCell id="6Uvs3lZ900TofVNQGSp9-143" value="" style="rounded=0;whiteSpace=wrap;html=1;fillColor=#9A9B9E;" parent="6Uvs3lZ900TofVNQGSp9-141" vertex="1">
          <mxGeometry width="40" height="60" as="geometry" />
        </mxCell>
        <mxCell id="6Uvs3lZ900TofVNQGSp9-144" value="" style="triangle;whiteSpace=wrap;html=1;rotation=90;fillColor=#9A9B9E;" parent="6Uvs3lZ900TofVNQGSp9-141" vertex="1">
          <mxGeometry x="10" y="-10" width="20" height="40" as="geometry" />
        </mxCell>
        <mxCell id="6Uvs3lZ900TofVNQGSp9-145" value="" style="endArrow=classic;html=1;rounded=0;entryX=0;entryY=0.5;entryDx=0;entryDy=0;exitX=1;exitY=0.5;exitDx=0;exitDy=0;" parent="1" source="6Uvs3lZ900TofVNQGSp9-340" target="6Uvs3lZ900TofVNQGSp9-131" edge="1">
          <mxGeometry width="50" height="50" relative="1" as="geometry">
            <mxPoint x="-930" y="860" as="sourcePoint" />
            <mxPoint x="-850" y="840" as="targetPoint" />
          </mxGeometry>
        </mxCell>
        <mxCell id="6Uvs3lZ900TofVNQGSp9-146" value="" style="endArrow=classic;html=1;rounded=0;entryX=0;entryY=0.5;entryDx=0;entryDy=0;exitX=1;exitY=0.5;exitDx=0;exitDy=0;" parent="1" source="6Uvs3lZ900TofVNQGSp9-344" target="6Uvs3lZ900TofVNQGSp9-135" edge="1">
          <mxGeometry width="50" height="50" relative="1" as="geometry">
            <mxPoint x="-950" y="930" as="sourcePoint" />
            <mxPoint x="-830" y="910" as="targetPoint" />
          </mxGeometry>
        </mxCell>
        <mxCell id="6Uvs3lZ900TofVNQGSp9-147" value="" style="endArrow=classic;html=1;rounded=0;entryX=0;entryY=0.5;entryDx=0;entryDy=0;exitX=1;exitY=0.5;exitDx=0;exitDy=0;" parent="1" source="6Uvs3lZ900TofVNQGSp9-131" target="6Uvs3lZ900TofVNQGSp9-139" edge="1">
          <mxGeometry width="50" height="50" relative="1" as="geometry">
            <mxPoint x="-640" y="920" as="sourcePoint" />
            <mxPoint x="-590" y="870" as="targetPoint" />
          </mxGeometry>
        </mxCell>
        <mxCell id="6Uvs3lZ900TofVNQGSp9-148" value="" style="endArrow=classic;html=1;rounded=0;entryX=0;entryY=0.5;entryDx=0;entryDy=0;exitX=1;exitY=0.5;exitDx=0;exitDy=0;" parent="1" source="6Uvs3lZ900TofVNQGSp9-135" target="6Uvs3lZ900TofVNQGSp9-143" edge="1">
          <mxGeometry width="50" height="50" relative="1" as="geometry">
            <mxPoint x="-630" y="970" as="sourcePoint" />
            <mxPoint x="-580" y="920" as="targetPoint" />
          </mxGeometry>
        </mxCell>
        <mxCell id="6Uvs3lZ900TofVNQGSp9-192" value="&lt;font style=&quot;font-size: 24px;&quot;&gt;$$&amp;gt;$$&lt;/font&gt;" style="ellipse;whiteSpace=wrap;html=1;aspect=fixed;fillColor=#F0F0F0;" parent="1" vertex="1">
          <mxGeometry x="-420.75" y="300" width="40" height="40" as="geometry" />
        </mxCell>
        <mxCell id="6Uvs3lZ900TofVNQGSp9-193" value="" style="endArrow=classic;html=1;rounded=0;entryX=0;entryY=0;entryDx=0;entryDy=0;exitX=1;exitY=0.5;exitDx=0;exitDy=0;" parent="1" source="6Uvs3lZ900TofVNQGSp9-11" target="6Uvs3lZ900TofVNQGSp9-192" edge="1">
          <mxGeometry width="50" height="50" relative="1" as="geometry">
            <mxPoint x="-500" y="360" as="sourcePoint" />
            <mxPoint x="-420.75" y="361" as="targetPoint" />
            <Array as="points">
              <mxPoint x="-450" y="240" />
            </Array>
          </mxGeometry>
        </mxCell>
        <mxCell id="6Uvs3lZ900TofVNQGSp9-194" value="" style="endArrow=classic;html=1;rounded=0;exitX=1;exitY=0.5;exitDx=0;exitDy=0;entryX=0;entryY=1;entryDx=0;entryDy=0;" parent="1" source="6Uvs3lZ900TofVNQGSp9-60" target="6Uvs3lZ900TofVNQGSp9-192" edge="1">
          <mxGeometry width="50" height="50" relative="1" as="geometry">
            <mxPoint x="-500" y="440" as="sourcePoint" />
            <mxPoint x="-440" y="420" as="targetPoint" />
            <Array as="points">
              <mxPoint x="-460" y="400" />
            </Array>
          </mxGeometry>
        </mxCell>
        <mxCell id="6Uvs3lZ900TofVNQGSp9-195" value="" style="endArrow=classic;html=1;rounded=0;entryX=0;entryY=0.5;entryDx=0;entryDy=0;exitX=1;exitY=0;exitDx=0;exitDy=0;" parent="1" source="6Uvs3lZ900TofVNQGSp9-192" target="6Uvs3lZ900TofVNQGSp9-198" edge="1">
          <mxGeometry width="50" height="50" relative="1" as="geometry">
            <mxPoint x="-410.75" y="481" as="sourcePoint" />
            <mxPoint x="-360.75" y="431" as="targetPoint" />
            <Array as="points">
              <mxPoint x="-360" y="240" />
            </Array>
          </mxGeometry>
        </mxCell>
        <mxCell id="6Uvs3lZ900TofVNQGSp9-196" value="" style="group" parent="1" vertex="1" connectable="0">
          <mxGeometry x="-310" y="210.25" width="40" height="60" as="geometry" />
        </mxCell>
        <mxCell id="6Uvs3lZ900TofVNQGSp9-197" value="" style="group;strokeWidth=1;fillColor=#9A9B9E;strokeColor=default;container=0;" parent="6Uvs3lZ900TofVNQGSp9-196" vertex="1" connectable="0">
          <mxGeometry width="40" height="60" as="geometry" />
        </mxCell>
        <mxCell id="6Uvs3lZ900TofVNQGSp9-198" value="" style="rounded=0;whiteSpace=wrap;html=1;fillColor=#9A9B9E;" parent="6Uvs3lZ900TofVNQGSp9-196" vertex="1">
          <mxGeometry width="40" height="60" as="geometry" />
        </mxCell>
        <mxCell id="6Uvs3lZ900TofVNQGSp9-199" value="" style="triangle;whiteSpace=wrap;html=1;rotation=90;fillColor=#9A9B9E;" parent="6Uvs3lZ900TofVNQGSp9-196" vertex="1">
          <mxGeometry x="10" y="-10" width="20" height="40" as="geometry" />
        </mxCell>
        <mxCell id="6Uvs3lZ900TofVNQGSp9-200" value="" style="group" parent="1" vertex="1" connectable="0">
          <mxGeometry x="-80" y="290" width="40" height="60" as="geometry" />
        </mxCell>
        <mxCell id="6Uvs3lZ900TofVNQGSp9-201" value="" style="group;strokeWidth=1;fillColor=#9A9B9E;strokeColor=default;container=0;" parent="6Uvs3lZ900TofVNQGSp9-200" vertex="1" connectable="0">
          <mxGeometry width="40" height="60" as="geometry" />
        </mxCell>
        <mxCell id="6Uvs3lZ900TofVNQGSp9-202" value="" style="rounded=0;whiteSpace=wrap;html=1;fillColor=#9A9B9E;" parent="6Uvs3lZ900TofVNQGSp9-200" vertex="1">
          <mxGeometry width="40" height="60" as="geometry" />
        </mxCell>
        <mxCell id="6Uvs3lZ900TofVNQGSp9-203" value="" style="triangle;whiteSpace=wrap;html=1;rotation=90;fillColor=#9A9B9E;" parent="6Uvs3lZ900TofVNQGSp9-200" vertex="1">
          <mxGeometry x="10" y="-10" width="20" height="40" as="geometry" />
        </mxCell>
        <mxCell id="6Uvs3lZ900TofVNQGSp9-204" value="" style="group" parent="1" vertex="1" connectable="0">
          <mxGeometry x="-310" y="370" width="40" height="60" as="geometry" />
        </mxCell>
        <mxCell id="6Uvs3lZ900TofVNQGSp9-205" value="" style="group;strokeWidth=1;fillColor=#9A9B9E;strokeColor=default;container=0;" parent="6Uvs3lZ900TofVNQGSp9-204" vertex="1" connectable="0">
          <mxGeometry width="40" height="60" as="geometry" />
        </mxCell>
        <mxCell id="6Uvs3lZ900TofVNQGSp9-206" value="" style="rounded=0;whiteSpace=wrap;html=1;fillColor=#9A9B9E;" parent="6Uvs3lZ900TofVNQGSp9-204" vertex="1">
          <mxGeometry width="40" height="60" as="geometry" />
        </mxCell>
        <mxCell id="6Uvs3lZ900TofVNQGSp9-207" value="" style="triangle;whiteSpace=wrap;html=1;rotation=90;fillColor=#9A9B9E;" parent="6Uvs3lZ900TofVNQGSp9-204" vertex="1">
          <mxGeometry x="10" y="-10" width="20" height="40" as="geometry" />
        </mxCell>
        <mxCell id="6Uvs3lZ900TofVNQGSp9-208" value="&lt;font style=&quot;font-size: 24px;&quot;&gt;$$&amp;gt;$$&lt;/font&gt;" style="ellipse;whiteSpace=wrap;html=1;aspect=fixed;fillColor=#F0F0F0;" parent="1" vertex="1">
          <mxGeometry x="-190" y="300" width="40" height="40" as="geometry" />
        </mxCell>
        <mxCell id="6Uvs3lZ900TofVNQGSp9-209" value="&lt;font style=&quot;font-size: 24px;&quot;&gt;$$&amp;gt;$$&lt;/font&gt;" style="ellipse;whiteSpace=wrap;html=1;aspect=fixed;fillColor=#F0F0F0;" parent="1" vertex="1">
          <mxGeometry x="-190" y="618" width="40" height="40" as="geometry" />
        </mxCell>
        <mxCell id="6Uvs3lZ900TofVNQGSp9-210" value="" style="group" parent="1" vertex="1" connectable="0">
          <mxGeometry x="-80" y="608" width="40" height="60" as="geometry" />
        </mxCell>
        <mxCell id="6Uvs3lZ900TofVNQGSp9-211" value="" style="group;strokeWidth=1;fillColor=#9A9B9E;strokeColor=default;container=0;" parent="6Uvs3lZ900TofVNQGSp9-210" vertex="1" connectable="0">
          <mxGeometry width="40" height="60" as="geometry" />
        </mxCell>
        <mxCell id="6Uvs3lZ900TofVNQGSp9-212" value="" style="rounded=0;whiteSpace=wrap;html=1;fillColor=#9A9B9E;" parent="6Uvs3lZ900TofVNQGSp9-210" vertex="1">
          <mxGeometry width="40" height="60" as="geometry" />
        </mxCell>
        <mxCell id="6Uvs3lZ900TofVNQGSp9-213" value="" style="triangle;whiteSpace=wrap;html=1;rotation=90;fillColor=#9A9B9E;" parent="6Uvs3lZ900TofVNQGSp9-210" vertex="1">
          <mxGeometry x="10" y="-10" width="20" height="40" as="geometry" />
        </mxCell>
        <mxCell id="6Uvs3lZ900TofVNQGSp9-214" value="" style="endArrow=classic;html=1;rounded=0;entryX=0;entryY=0.5;entryDx=0;entryDy=0;exitX=1;exitY=1;exitDx=0;exitDy=0;" parent="1" source="6Uvs3lZ900TofVNQGSp9-192" target="6Uvs3lZ900TofVNQGSp9-206" edge="1">
          <mxGeometry width="50" height="50" relative="1" as="geometry">
            <mxPoint x="-387" y="439.75" as="sourcePoint" />
            <mxPoint x="-340" y="469.75" as="targetPoint" />
            <Array as="points">
              <mxPoint x="-360" y="400" />
            </Array>
          </mxGeometry>
        </mxCell>
        <mxCell id="6Uvs3lZ900TofVNQGSp9-215" value="&lt;font style=&quot;font-size: 24px;&quot;&gt;$$&amp;gt;$$&lt;/font&gt;" style="ellipse;whiteSpace=wrap;html=1;aspect=fixed;fillColor=#F0F0F0;" parent="1" vertex="1">
          <mxGeometry x="-420.75" y="618" width="40" height="40" as="geometry" />
        </mxCell>
        <mxCell id="6Uvs3lZ900TofVNQGSp9-217" value="" style="endArrow=classic;html=1;rounded=0;entryX=0;entryY=1;entryDx=0;entryDy=0;exitX=0.99;exitY=0.541;exitDx=0;exitDy=0;exitPerimeter=0;" parent="1" source="6Uvs3lZ900TofVNQGSp9-107" target="6Uvs3lZ900TofVNQGSp9-215" edge="1">
          <mxGeometry width="50" height="50" relative="1" as="geometry">
            <mxPoint x="-490" y="730" as="sourcePoint" />
            <mxPoint x="-430.75" y="590.75" as="targetPoint" />
            <Array as="points">
              <mxPoint x="-450" y="720" />
            </Array>
          </mxGeometry>
        </mxCell>
        <mxCell id="6Uvs3lZ900TofVNQGSp9-218" value="" style="endArrow=classic;html=1;rounded=0;entryX=0;entryY=0.5;entryDx=0;entryDy=0;exitX=1;exitY=0;exitDx=0;exitDy=0;" parent="1" source="6Uvs3lZ900TofVNQGSp9-215" target="6Uvs3lZ900TofVNQGSp9-221" edge="1">
          <mxGeometry width="50" height="50" relative="1" as="geometry">
            <mxPoint x="-410.75" y="640.75" as="sourcePoint" />
            <mxPoint x="-360.75" y="590.75" as="targetPoint" />
            <Array as="points">
              <mxPoint x="-360" y="560" />
            </Array>
          </mxGeometry>
        </mxCell>
        <mxCell id="6Uvs3lZ900TofVNQGSp9-219" value="" style="group" parent="1" vertex="1" connectable="0">
          <mxGeometry x="-310" y="530" width="40" height="60" as="geometry" />
        </mxCell>
        <mxCell id="6Uvs3lZ900TofVNQGSp9-220" value="" style="group;strokeWidth=1;fillColor=#9A9B9E;strokeColor=default;container=0;" parent="6Uvs3lZ900TofVNQGSp9-219" vertex="1" connectable="0">
          <mxGeometry width="40" height="60" as="geometry" />
        </mxCell>
        <mxCell id="6Uvs3lZ900TofVNQGSp9-221" value="" style="rounded=0;whiteSpace=wrap;html=1;fillColor=#9A9B9E;" parent="6Uvs3lZ900TofVNQGSp9-219" vertex="1">
          <mxGeometry width="40" height="60" as="geometry" />
        </mxCell>
        <mxCell id="6Uvs3lZ900TofVNQGSp9-222" value="" style="triangle;whiteSpace=wrap;html=1;rotation=90;fillColor=#9A9B9E;" parent="6Uvs3lZ900TofVNQGSp9-219" vertex="1">
          <mxGeometry x="10" y="-10" width="20" height="40" as="geometry" />
        </mxCell>
        <mxCell id="6Uvs3lZ900TofVNQGSp9-223" value="" style="group" parent="1" vertex="1" connectable="0">
          <mxGeometry x="-310" y="690" width="40" height="60" as="geometry" />
        </mxCell>
        <mxCell id="6Uvs3lZ900TofVNQGSp9-224" value="" style="group;strokeWidth=1;fillColor=#9A9B9E;strokeColor=default;container=0;" parent="6Uvs3lZ900TofVNQGSp9-223" vertex="1" connectable="0">
          <mxGeometry width="40" height="60" as="geometry" />
        </mxCell>
        <mxCell id="6Uvs3lZ900TofVNQGSp9-225" value="" style="rounded=0;whiteSpace=wrap;html=1;fillColor=#9A9B9E;" parent="6Uvs3lZ900TofVNQGSp9-223" vertex="1">
          <mxGeometry width="40" height="60" as="geometry" />
        </mxCell>
        <mxCell id="6Uvs3lZ900TofVNQGSp9-226" value="" style="triangle;whiteSpace=wrap;html=1;rotation=90;fillColor=#9A9B9E;" parent="6Uvs3lZ900TofVNQGSp9-223" vertex="1">
          <mxGeometry x="10" y="-10" width="20" height="40" as="geometry" />
        </mxCell>
        <mxCell id="6Uvs3lZ900TofVNQGSp9-227" value="" style="endArrow=classic;html=1;rounded=0;entryX=0;entryY=0.5;entryDx=0;entryDy=0;exitX=1;exitY=1;exitDx=0;exitDy=0;" parent="1" source="6Uvs3lZ900TofVNQGSp9-215" target="6Uvs3lZ900TofVNQGSp9-225" edge="1">
          <mxGeometry width="50" height="50" relative="1" as="geometry">
            <mxPoint x="-387" y="599.5" as="sourcePoint" />
            <mxPoint x="-340" y="629.5" as="targetPoint" />
            <Array as="points">
              <mxPoint x="-360" y="720" />
            </Array>
          </mxGeometry>
        </mxCell>
        <mxCell id="6Uvs3lZ900TofVNQGSp9-228" value="" style="endArrow=classic;html=1;rounded=0;entryX=0;entryY=0;entryDx=0;entryDy=0;exitX=1;exitY=0.5;exitDx=0;exitDy=0;" parent="1" source="6Uvs3lZ900TofVNQGSp9-198" target="6Uvs3lZ900TofVNQGSp9-208" edge="1">
          <mxGeometry width="50" height="50" relative="1" as="geometry">
            <mxPoint x="-250" y="359" as="sourcePoint" />
            <mxPoint x="-165" y="384.75" as="targetPoint" />
            <Array as="points">
              <mxPoint x="-220" y="240" />
            </Array>
          </mxGeometry>
        </mxCell>
        <mxCell id="6Uvs3lZ900TofVNQGSp9-229" value="" style="endArrow=classic;html=1;rounded=0;exitX=1;exitY=0.5;exitDx=0;exitDy=0;entryX=0;entryY=1;entryDx=0;entryDy=0;" parent="1" source="6Uvs3lZ900TofVNQGSp9-221" target="6Uvs3lZ900TofVNQGSp9-208" edge="1">
          <mxGeometry width="50" height="50" relative="1" as="geometry">
            <mxPoint x="-240" y="539.75" as="sourcePoint" />
            <mxPoint x="-190" y="489.75" as="targetPoint" />
            <Array as="points">
              <mxPoint x="-220" y="560" />
            </Array>
          </mxGeometry>
        </mxCell>
        <mxCell id="6Uvs3lZ900TofVNQGSp9-230" value="" style="endArrow=classic;html=1;rounded=0;exitX=1;exitY=0.5;exitDx=0;exitDy=0;entryX=0;entryY=0;entryDx=0;entryDy=0;" parent="1" source="6Uvs3lZ900TofVNQGSp9-206" target="6Uvs3lZ900TofVNQGSp9-209" edge="1">
          <mxGeometry width="50" height="50" relative="1" as="geometry">
            <mxPoint x="-230" y="489.75" as="sourcePoint" />
            <mxPoint x="-180" y="439.75" as="targetPoint" />
            <Array as="points">
              <mxPoint x="-220" y="400" />
            </Array>
          </mxGeometry>
        </mxCell>
        <mxCell id="6Uvs3lZ900TofVNQGSp9-231" value="" style="endArrow=classic;html=1;rounded=0;exitX=1;exitY=0.5;exitDx=0;exitDy=0;entryX=0;entryY=1;entryDx=0;entryDy=0;" parent="1" source="6Uvs3lZ900TofVNQGSp9-225" target="6Uvs3lZ900TofVNQGSp9-209" edge="1">
          <mxGeometry width="50" height="50" relative="1" as="geometry">
            <mxPoint x="-200" y="629.75" as="sourcePoint" />
            <mxPoint x="-150" y="579.75" as="targetPoint" />
            <Array as="points">
              <mxPoint x="-220" y="720" />
            </Array>
          </mxGeometry>
        </mxCell>
        <mxCell id="6Uvs3lZ900TofVNQGSp9-232" value="" style="endArrow=classic;html=1;rounded=0;exitX=1;exitY=0.5;exitDx=0;exitDy=0;entryX=0;entryY=0.5;entryDx=0;entryDy=0;" parent="1" source="6Uvs3lZ900TofVNQGSp9-208" target="6Uvs3lZ900TofVNQGSp9-202" edge="1">
          <mxGeometry width="50" height="50" relative="1" as="geometry">
            <mxPoint x="-110" y="509.75" as="sourcePoint" />
            <mxPoint x="-60" y="459.75" as="targetPoint" />
          </mxGeometry>
        </mxCell>
        <mxCell id="6Uvs3lZ900TofVNQGSp9-233" value="" style="endArrow=classic;html=1;rounded=0;exitX=1;exitY=0.5;exitDx=0;exitDy=0;entryX=0;entryY=0.5;entryDx=0;entryDy=0;" parent="1" source="6Uvs3lZ900TofVNQGSp9-209" target="6Uvs3lZ900TofVNQGSp9-212" edge="1">
          <mxGeometry width="50" height="50" relative="1" as="geometry">
            <mxPoint x="-130" y="539.75" as="sourcePoint" />
            <mxPoint x="-80" y="489.75" as="targetPoint" />
          </mxGeometry>
        </mxCell>
        <mxCell id="6Uvs3lZ900TofVNQGSp9-234" value="" style="endArrow=classic;html=1;rounded=0;exitX=0.99;exitY=0.535;exitDx=0;exitDy=0;exitPerimeter=0;entryX=0;entryY=0;entryDx=0;entryDy=0;" parent="1" source="6Uvs3lZ900TofVNQGSp9-97" target="6Uvs3lZ900TofVNQGSp9-215" edge="1">
          <mxGeometry width="50" height="50" relative="1" as="geometry">
            <mxPoint x="-470" y="590" as="sourcePoint" />
            <mxPoint x="-420" y="540" as="targetPoint" />
            <Array as="points">
              <mxPoint x="-450" y="560" />
            </Array>
          </mxGeometry>
        </mxCell>
        <mxCell id="6Uvs3lZ900TofVNQGSp9-235" value="" style="group" parent="1" vertex="1" connectable="0">
          <mxGeometry x="-310" y="810" width="40" height="60" as="geometry" />
        </mxCell>
        <mxCell id="6Uvs3lZ900TofVNQGSp9-236" value="" style="group;strokeWidth=1;fillColor=#9A9B9E;strokeColor=default;container=0;" parent="6Uvs3lZ900TofVNQGSp9-235" vertex="1" connectable="0">
          <mxGeometry width="40" height="60" as="geometry" />
        </mxCell>
        <mxCell id="6Uvs3lZ900TofVNQGSp9-237" value="" style="rounded=0;whiteSpace=wrap;html=1;fillColor=#9A9B9E;" parent="6Uvs3lZ900TofVNQGSp9-235" vertex="1">
          <mxGeometry width="40" height="60" as="geometry" />
        </mxCell>
        <mxCell id="6Uvs3lZ900TofVNQGSp9-238" value="" style="triangle;whiteSpace=wrap;html=1;rotation=90;fillColor=#9A9B9E;" parent="6Uvs3lZ900TofVNQGSp9-235" vertex="1">
          <mxGeometry x="10" y="-10" width="20" height="40" as="geometry" />
        </mxCell>
        <mxCell id="6Uvs3lZ900TofVNQGSp9-239" value="" style="group" parent="1" vertex="1" connectable="0">
          <mxGeometry x="-310" y="890" width="40" height="60" as="geometry" />
        </mxCell>
        <mxCell id="6Uvs3lZ900TofVNQGSp9-240" value="" style="group;strokeWidth=1;fillColor=#9A9B9E;strokeColor=default;container=0;" parent="6Uvs3lZ900TofVNQGSp9-239" vertex="1" connectable="0">
          <mxGeometry width="40" height="60" as="geometry" />
        </mxCell>
        <mxCell id="6Uvs3lZ900TofVNQGSp9-241" value="" style="rounded=0;whiteSpace=wrap;html=1;fillColor=#9A9B9E;" parent="6Uvs3lZ900TofVNQGSp9-239" vertex="1">
          <mxGeometry width="40" height="60" as="geometry" />
        </mxCell>
        <mxCell id="6Uvs3lZ900TofVNQGSp9-242" value="" style="triangle;whiteSpace=wrap;html=1;rotation=90;fillColor=#9A9B9E;" parent="6Uvs3lZ900TofVNQGSp9-239" vertex="1">
          <mxGeometry x="10" y="-10" width="20" height="40" as="geometry" />
        </mxCell>
        <mxCell id="6Uvs3lZ900TofVNQGSp9-243" value="" style="group" parent="1" vertex="1" connectable="0">
          <mxGeometry x="-80" y="810" width="40" height="60" as="geometry" />
        </mxCell>
        <mxCell id="6Uvs3lZ900TofVNQGSp9-244" value="" style="group;strokeWidth=1;fillColor=#9A9B9E;strokeColor=default;container=0;" parent="6Uvs3lZ900TofVNQGSp9-243" vertex="1" connectable="0">
          <mxGeometry width="40" height="60" as="geometry" />
        </mxCell>
        <mxCell id="6Uvs3lZ900TofVNQGSp9-245" value="" style="rounded=0;whiteSpace=wrap;html=1;fillColor=#9A9B9E;" parent="6Uvs3lZ900TofVNQGSp9-243" vertex="1">
          <mxGeometry width="40" height="60" as="geometry" />
        </mxCell>
        <mxCell id="6Uvs3lZ900TofVNQGSp9-246" value="" style="triangle;whiteSpace=wrap;html=1;rotation=90;fillColor=#9A9B9E;" parent="6Uvs3lZ900TofVNQGSp9-243" vertex="1">
          <mxGeometry x="10" y="-10" width="20" height="40" as="geometry" />
        </mxCell>
        <mxCell id="6Uvs3lZ900TofVNQGSp9-247" value="" style="group" parent="1" vertex="1" connectable="0">
          <mxGeometry x="-80" y="890" width="40" height="60" as="geometry" />
        </mxCell>
        <mxCell id="6Uvs3lZ900TofVNQGSp9-248" value="" style="group;strokeWidth=1;fillColor=#9A9B9E;strokeColor=default;container=0;" parent="6Uvs3lZ900TofVNQGSp9-247" vertex="1" connectable="0">
          <mxGeometry width="40" height="60" as="geometry" />
        </mxCell>
        <mxCell id="6Uvs3lZ900TofVNQGSp9-249" value="" style="rounded=0;whiteSpace=wrap;html=1;fillColor=#9A9B9E;" parent="6Uvs3lZ900TofVNQGSp9-247" vertex="1">
          <mxGeometry width="40" height="60" as="geometry" />
        </mxCell>
        <mxCell id="6Uvs3lZ900TofVNQGSp9-250" value="" style="triangle;whiteSpace=wrap;html=1;rotation=90;fillColor=#9A9B9E;" parent="6Uvs3lZ900TofVNQGSp9-247" vertex="1">
          <mxGeometry x="10" y="-10" width="20" height="40" as="geometry" />
        </mxCell>
        <mxCell id="6Uvs3lZ900TofVNQGSp9-251" value="" style="endArrow=classic;html=1;rounded=0;entryX=0;entryY=0.5;entryDx=0;entryDy=0;exitX=1;exitY=0.5;exitDx=0;exitDy=0;" parent="1" source="6Uvs3lZ900TofVNQGSp9-139" target="6Uvs3lZ900TofVNQGSp9-237" edge="1">
          <mxGeometry width="50" height="50" relative="1" as="geometry">
            <mxPoint x="-480" y="850" as="sourcePoint" />
            <mxPoint x="-390" y="840" as="targetPoint" />
          </mxGeometry>
        </mxCell>
        <mxCell id="6Uvs3lZ900TofVNQGSp9-252" value="" style="endArrow=classic;html=1;rounded=0;entryX=0;entryY=0.5;entryDx=0;entryDy=0;exitX=1;exitY=0.5;exitDx=0;exitDy=0;" parent="1" source="6Uvs3lZ900TofVNQGSp9-143" target="6Uvs3lZ900TofVNQGSp9-241" edge="1">
          <mxGeometry width="50" height="50" relative="1" as="geometry">
            <mxPoint x="-490" y="930" as="sourcePoint" />
            <mxPoint x="-370" y="910" as="targetPoint" />
          </mxGeometry>
        </mxCell>
        <mxCell id="6Uvs3lZ900TofVNQGSp9-253" value="" style="endArrow=classic;html=1;rounded=0;entryX=0;entryY=0.5;entryDx=0;entryDy=0;exitX=1;exitY=0.5;exitDx=0;exitDy=0;" parent="1" source="6Uvs3lZ900TofVNQGSp9-237" target="6Uvs3lZ900TofVNQGSp9-245" edge="1">
          <mxGeometry width="50" height="50" relative="1" as="geometry">
            <mxPoint x="-180" y="920" as="sourcePoint" />
            <mxPoint x="-130" y="870" as="targetPoint" />
          </mxGeometry>
        </mxCell>
        <mxCell id="6Uvs3lZ900TofVNQGSp9-254" value="" style="endArrow=classic;html=1;rounded=0;entryX=0;entryY=0.5;entryDx=0;entryDy=0;exitX=1;exitY=0.5;exitDx=0;exitDy=0;" parent="1" source="6Uvs3lZ900TofVNQGSp9-241" target="6Uvs3lZ900TofVNQGSp9-249" edge="1">
          <mxGeometry width="50" height="50" relative="1" as="geometry">
            <mxPoint x="-170" y="970" as="sourcePoint" />
            <mxPoint x="-120" y="920" as="targetPoint" />
          </mxGeometry>
        </mxCell>
        <mxCell id="6Uvs3lZ900TofVNQGSp9-256" value="&lt;font style=&quot;font-size: 24px;&quot;&gt;$$&amp;gt;$$&lt;/font&gt;" style="ellipse;whiteSpace=wrap;html=1;aspect=fixed;fillColor=#F0F0F0;" parent="1" vertex="1">
          <mxGeometry x="30" y="450" width="40" height="40" as="geometry" />
        </mxCell>
        <mxCell id="6Uvs3lZ900TofVNQGSp9-257" value="" style="endArrow=classic;html=1;rounded=0;entryX=0;entryY=0;entryDx=0;entryDy=0;exitX=1;exitY=0.5;exitDx=0;exitDy=0;" parent="1" source="6Uvs3lZ900TofVNQGSp9-202" target="6Uvs3lZ900TofVNQGSp9-256" edge="1">
          <mxGeometry width="50" height="50" relative="1" as="geometry">
            <mxPoint x="-40" y="580" as="sourcePoint" />
            <mxPoint x="39.25" y="581" as="targetPoint" />
            <Array as="points">
              <mxPoint x="8" y="320" />
            </Array>
          </mxGeometry>
        </mxCell>
        <mxCell id="6Uvs3lZ900TofVNQGSp9-258" value="" style="endArrow=classic;html=1;rounded=0;entryX=0;entryY=1;entryDx=0;entryDy=0;exitX=1;exitY=0.5;exitDx=0;exitDy=0;" parent="1" source="6Uvs3lZ900TofVNQGSp9-212" target="6Uvs3lZ900TofVNQGSp9-256" edge="1">
          <mxGeometry width="50" height="50" relative="1" as="geometry">
            <mxPoint x="-40" y="660" as="sourcePoint" />
            <mxPoint x="29.25" y="651" as="targetPoint" />
            <Array as="points">
              <mxPoint x="10" y="638" />
            </Array>
          </mxGeometry>
        </mxCell>
        <mxCell id="6Uvs3lZ900TofVNQGSp9-259" value="" style="endArrow=classic;html=1;rounded=0;entryX=0;entryY=0.5;entryDx=0;entryDy=0;exitX=1;exitY=0;exitDx=0;exitDy=0;" parent="1" source="6Uvs3lZ900TofVNQGSp9-256" target="6Uvs3lZ900TofVNQGSp9-262" edge="1">
          <mxGeometry width="50" height="50" relative="1" as="geometry">
            <mxPoint x="49.25" y="701" as="sourcePoint" />
            <mxPoint x="99.25" y="651" as="targetPoint" />
            <Array as="points">
              <mxPoint x="100" y="400" />
            </Array>
          </mxGeometry>
        </mxCell>
        <mxCell id="6Uvs3lZ900TofVNQGSp9-260" value="" style="group" parent="1" vertex="1" connectable="0">
          <mxGeometry x="150" y="370" width="40" height="60" as="geometry" />
        </mxCell>
        <mxCell id="6Uvs3lZ900TofVNQGSp9-261" value="" style="group;strokeWidth=1;fillColor=#9A9B9E;strokeColor=default;container=0;" parent="6Uvs3lZ900TofVNQGSp9-260" vertex="1" connectable="0">
          <mxGeometry width="40" height="60" as="geometry" />
        </mxCell>
        <mxCell id="6Uvs3lZ900TofVNQGSp9-262" value="" style="rounded=0;whiteSpace=wrap;html=1;fillColor=#9A9B9E;" parent="6Uvs3lZ900TofVNQGSp9-260" vertex="1">
          <mxGeometry width="40" height="60" as="geometry" />
        </mxCell>
        <mxCell id="6Uvs3lZ900TofVNQGSp9-263" value="" style="triangle;whiteSpace=wrap;html=1;rotation=90;fillColor=#9A9B9E;" parent="6Uvs3lZ900TofVNQGSp9-260" vertex="1">
          <mxGeometry x="10" y="-10" width="20" height="40" as="geometry" />
        </mxCell>
        <mxCell id="6Uvs3lZ900TofVNQGSp9-264" value="" style="group" parent="1" vertex="1" connectable="0">
          <mxGeometry x="380" y="438.25" width="40" height="60" as="geometry" />
        </mxCell>
        <mxCell id="6Uvs3lZ900TofVNQGSp9-265" value="" style="group;strokeWidth=1;fillColor=#9A9B9E;strokeColor=default;container=0;" parent="6Uvs3lZ900TofVNQGSp9-264" vertex="1" connectable="0">
          <mxGeometry width="40" height="60" as="geometry" />
        </mxCell>
        <mxCell id="6Uvs3lZ900TofVNQGSp9-266" value="" style="rounded=0;whiteSpace=wrap;html=1;fillColor=#9A9B9E;" parent="6Uvs3lZ900TofVNQGSp9-264" vertex="1">
          <mxGeometry width="40" height="60" as="geometry" />
        </mxCell>
        <mxCell id="6Uvs3lZ900TofVNQGSp9-267" value="" style="triangle;whiteSpace=wrap;html=1;rotation=90;fillColor=#9A9B9E;" parent="6Uvs3lZ900TofVNQGSp9-264" vertex="1">
          <mxGeometry x="10" y="-10" width="20" height="40" as="geometry" />
        </mxCell>
        <mxCell id="6Uvs3lZ900TofVNQGSp9-268" value="" style="group" parent="1" vertex="1" connectable="0">
          <mxGeometry x="150" y="530" width="40" height="60" as="geometry" />
        </mxCell>
        <mxCell id="6Uvs3lZ900TofVNQGSp9-269" value="" style="group;strokeWidth=1;fillColor=#9A9B9E;strokeColor=default;container=0;" parent="6Uvs3lZ900TofVNQGSp9-268" vertex="1" connectable="0">
          <mxGeometry width="40" height="60" as="geometry" />
        </mxCell>
        <mxCell id="6Uvs3lZ900TofVNQGSp9-270" value="" style="rounded=0;whiteSpace=wrap;html=1;fillColor=#9A9B9E;" parent="6Uvs3lZ900TofVNQGSp9-268" vertex="1">
          <mxGeometry width="40" height="60" as="geometry" />
        </mxCell>
        <mxCell id="6Uvs3lZ900TofVNQGSp9-271" value="" style="triangle;whiteSpace=wrap;html=1;rotation=90;fillColor=#9A9B9E;" parent="6Uvs3lZ900TofVNQGSp9-268" vertex="1">
          <mxGeometry x="10" y="-10" width="20" height="40" as="geometry" />
        </mxCell>
        <mxCell id="6Uvs3lZ900TofVNQGSp9-272" value="&lt;font style=&quot;font-size: 24px;&quot;&gt;$$&amp;gt;$$&lt;/font&gt;" style="ellipse;whiteSpace=wrap;html=1;aspect=fixed;fillColor=#F0F0F0;" parent="1" vertex="1">
          <mxGeometry x="270" y="448.25" width="40" height="40" as="geometry" />
        </mxCell>
        <mxCell id="6Uvs3lZ900TofVNQGSp9-273" value="&lt;font style=&quot;font-size: 24px;&quot;&gt;$$&amp;gt;$$&lt;/font&gt;" style="ellipse;whiteSpace=wrap;html=1;aspect=fixed;fillColor=#F0F0F0;" parent="1" vertex="1">
          <mxGeometry x="270" y="860" width="40" height="40" as="geometry" />
        </mxCell>
        <mxCell id="6Uvs3lZ900TofVNQGSp9-274" value="" style="group" parent="1" vertex="1" connectable="0">
          <mxGeometry x="380" y="850" width="40" height="60" as="geometry" />
        </mxCell>
        <mxCell id="6Uvs3lZ900TofVNQGSp9-275" value="" style="group;strokeWidth=1;fillColor=#9A9B9E;strokeColor=default;container=0;" parent="6Uvs3lZ900TofVNQGSp9-274" vertex="1" connectable="0">
          <mxGeometry width="40" height="60" as="geometry" />
        </mxCell>
        <mxCell id="6Uvs3lZ900TofVNQGSp9-276" value="" style="rounded=0;whiteSpace=wrap;html=1;fillColor=#9A9B9E;" parent="6Uvs3lZ900TofVNQGSp9-274" vertex="1">
          <mxGeometry width="40" height="60" as="geometry" />
        </mxCell>
        <mxCell id="6Uvs3lZ900TofVNQGSp9-277" value="" style="triangle;whiteSpace=wrap;html=1;rotation=90;fillColor=#9A9B9E;" parent="6Uvs3lZ900TofVNQGSp9-274" vertex="1">
          <mxGeometry x="10" y="-10" width="20" height="40" as="geometry" />
        </mxCell>
        <mxCell id="6Uvs3lZ900TofVNQGSp9-278" value="" style="endArrow=classic;html=1;rounded=0;entryX=0;entryY=0.5;entryDx=0;entryDy=0;exitX=1;exitY=1;exitDx=0;exitDy=0;" parent="1" source="6Uvs3lZ900TofVNQGSp9-256" target="6Uvs3lZ900TofVNQGSp9-270" edge="1">
          <mxGeometry width="50" height="50" relative="1" as="geometry">
            <mxPoint x="73" y="659.75" as="sourcePoint" />
            <mxPoint x="120" y="689.75" as="targetPoint" />
            <Array as="points">
              <mxPoint x="100" y="560" />
            </Array>
          </mxGeometry>
        </mxCell>
        <mxCell id="6Uvs3lZ900TofVNQGSp9-279" value="&lt;font style=&quot;font-size: 24px;&quot;&gt;$$&amp;gt;$$&lt;/font&gt;" style="ellipse;whiteSpace=wrap;html=1;aspect=fixed;fillColor=#F0F0F0;" parent="1" vertex="1">
          <mxGeometry x="30" y="860" width="40" height="40" as="geometry" />
        </mxCell>
        <mxCell id="6Uvs3lZ900TofVNQGSp9-280" value="" style="endArrow=classic;html=1;rounded=0;entryX=0;entryY=0;entryDx=0;entryDy=0;exitX=1;exitY=0.5;exitDx=0;exitDy=0;" parent="1" source="6Uvs3lZ900TofVNQGSp9-245" target="6Uvs3lZ900TofVNQGSp9-279" edge="1">
          <mxGeometry width="50" height="50" relative="1" as="geometry">
            <mxPoint x="-40" y="739.75" as="sourcePoint" />
            <mxPoint x="39.25" y="740.75" as="targetPoint" />
            <Array as="points">
              <mxPoint y="840" />
            </Array>
          </mxGeometry>
        </mxCell>
        <mxCell id="6Uvs3lZ900TofVNQGSp9-281" value="" style="endArrow=classic;html=1;rounded=0;entryX=0;entryY=1;entryDx=0;entryDy=0;exitX=1;exitY=0.5;exitDx=0;exitDy=0;" parent="1" source="6Uvs3lZ900TofVNQGSp9-249" target="6Uvs3lZ900TofVNQGSp9-279" edge="1">
          <mxGeometry width="50" height="50" relative="1" as="geometry">
            <mxPoint x="-40" y="819.75" as="sourcePoint" />
            <mxPoint x="29.25" y="810.75" as="targetPoint" />
            <Array as="points">
              <mxPoint y="920" />
            </Array>
          </mxGeometry>
        </mxCell>
        <mxCell id="6Uvs3lZ900TofVNQGSp9-282" value="" style="endArrow=classic;html=1;rounded=0;entryX=0;entryY=0.5;entryDx=0;entryDy=0;exitX=1;exitY=0;exitDx=0;exitDy=0;" parent="1" source="6Uvs3lZ900TofVNQGSp9-279" target="6Uvs3lZ900TofVNQGSp9-285" edge="1">
          <mxGeometry width="50" height="50" relative="1" as="geometry">
            <mxPoint x="49.25" y="860.75" as="sourcePoint" />
            <mxPoint x="99.25" y="810.75" as="targetPoint" />
            <Array as="points">
              <mxPoint x="100" y="840" />
            </Array>
          </mxGeometry>
        </mxCell>
        <mxCell id="6Uvs3lZ900TofVNQGSp9-283" value="" style="group" parent="1" vertex="1" connectable="0">
          <mxGeometry x="150" y="809.75" width="40" height="60" as="geometry" />
        </mxCell>
        <mxCell id="6Uvs3lZ900TofVNQGSp9-284" value="" style="group;strokeWidth=1;fillColor=#9A9B9E;strokeColor=default;container=0;" parent="6Uvs3lZ900TofVNQGSp9-283" vertex="1" connectable="0">
          <mxGeometry width="40" height="60" as="geometry" />
        </mxCell>
        <mxCell id="6Uvs3lZ900TofVNQGSp9-285" value="" style="rounded=0;whiteSpace=wrap;html=1;fillColor=#9A9B9E;" parent="6Uvs3lZ900TofVNQGSp9-283" vertex="1">
          <mxGeometry width="40" height="60" as="geometry" />
        </mxCell>
        <mxCell id="6Uvs3lZ900TofVNQGSp9-286" value="" style="triangle;whiteSpace=wrap;html=1;rotation=90;fillColor=#9A9B9E;" parent="6Uvs3lZ900TofVNQGSp9-283" vertex="1">
          <mxGeometry x="10" y="-10" width="20" height="40" as="geometry" />
        </mxCell>
        <mxCell id="6Uvs3lZ900TofVNQGSp9-287" value="" style="group" parent="1" vertex="1" connectable="0">
          <mxGeometry x="150" y="890" width="40" height="60" as="geometry" />
        </mxCell>
        <mxCell id="6Uvs3lZ900TofVNQGSp9-288" value="" style="group;strokeWidth=1;fillColor=#9A9B9E;strokeColor=default;container=0;" parent="6Uvs3lZ900TofVNQGSp9-287" vertex="1" connectable="0">
          <mxGeometry width="40" height="60" as="geometry" />
        </mxCell>
        <mxCell id="6Uvs3lZ900TofVNQGSp9-289" value="" style="rounded=0;whiteSpace=wrap;html=1;fillColor=#9A9B9E;" parent="6Uvs3lZ900TofVNQGSp9-287" vertex="1">
          <mxGeometry width="40" height="60" as="geometry" />
        </mxCell>
        <mxCell id="6Uvs3lZ900TofVNQGSp9-290" value="" style="triangle;whiteSpace=wrap;html=1;rotation=90;fillColor=#9A9B9E;" parent="6Uvs3lZ900TofVNQGSp9-287" vertex="1">
          <mxGeometry x="10" y="-10" width="20" height="40" as="geometry" />
        </mxCell>
        <mxCell id="6Uvs3lZ900TofVNQGSp9-291" value="" style="endArrow=classic;html=1;rounded=0;entryX=0;entryY=0.5;entryDx=0;entryDy=0;exitX=1;exitY=1;exitDx=0;exitDy=0;" parent="1" source="6Uvs3lZ900TofVNQGSp9-279" target="6Uvs3lZ900TofVNQGSp9-289" edge="1">
          <mxGeometry width="50" height="50" relative="1" as="geometry">
            <mxPoint x="73" y="819.5" as="sourcePoint" />
            <mxPoint x="120" y="849.5" as="targetPoint" />
            <Array as="points">
              <mxPoint x="100" y="920" />
            </Array>
          </mxGeometry>
        </mxCell>
        <mxCell id="6Uvs3lZ900TofVNQGSp9-292" value="" style="endArrow=classic;html=1;rounded=0;entryX=0;entryY=0;entryDx=0;entryDy=0;exitX=1;exitY=0.5;exitDx=0;exitDy=0;" parent="1" source="6Uvs3lZ900TofVNQGSp9-262" target="6Uvs3lZ900TofVNQGSp9-272" edge="1">
          <mxGeometry width="50" height="50" relative="1" as="geometry">
            <mxPoint x="210" y="579" as="sourcePoint" />
            <mxPoint x="295" y="604.75" as="targetPoint" />
            <Array as="points">
              <mxPoint x="240" y="400" />
            </Array>
          </mxGeometry>
        </mxCell>
        <mxCell id="6Uvs3lZ900TofVNQGSp9-293" value="" style="endArrow=classic;html=1;rounded=0;exitX=1;exitY=0.5;exitDx=0;exitDy=0;entryX=0;entryY=1;entryDx=0;entryDy=0;" parent="1" source="6Uvs3lZ900TofVNQGSp9-285" target="6Uvs3lZ900TofVNQGSp9-272" edge="1">
          <mxGeometry width="50" height="50" relative="1" as="geometry">
            <mxPoint x="220" y="759.75" as="sourcePoint" />
            <mxPoint x="270" y="709.75" as="targetPoint" />
            <Array as="points">
              <mxPoint x="240" y="840" />
            </Array>
          </mxGeometry>
        </mxCell>
        <mxCell id="6Uvs3lZ900TofVNQGSp9-294" value="" style="endArrow=classic;html=1;rounded=0;exitX=1;exitY=0.5;exitDx=0;exitDy=0;entryX=0;entryY=0;entryDx=0;entryDy=0;" parent="1" source="6Uvs3lZ900TofVNQGSp9-270" target="6Uvs3lZ900TofVNQGSp9-273" edge="1">
          <mxGeometry width="50" height="50" relative="1" as="geometry">
            <mxPoint x="230" y="709.75" as="sourcePoint" />
            <mxPoint x="280" y="659.75" as="targetPoint" />
            <Array as="points">
              <mxPoint x="240" y="560" />
            </Array>
          </mxGeometry>
        </mxCell>
        <mxCell id="6Uvs3lZ900TofVNQGSp9-295" value="" style="endArrow=classic;html=1;rounded=0;exitX=1;exitY=0.5;exitDx=0;exitDy=0;entryX=0;entryY=1;entryDx=0;entryDy=0;" parent="1" source="6Uvs3lZ900TofVNQGSp9-289" target="6Uvs3lZ900TofVNQGSp9-273" edge="1">
          <mxGeometry width="50" height="50" relative="1" as="geometry">
            <mxPoint x="260" y="849.75" as="sourcePoint" />
            <mxPoint x="310" y="799.75" as="targetPoint" />
            <Array as="points">
              <mxPoint x="240" y="920" />
            </Array>
          </mxGeometry>
        </mxCell>
        <mxCell id="6Uvs3lZ900TofVNQGSp9-296" value="" style="endArrow=classic;html=1;rounded=0;exitX=1;exitY=0.5;exitDx=0;exitDy=0;entryX=0;entryY=0.5;entryDx=0;entryDy=0;" parent="1" source="6Uvs3lZ900TofVNQGSp9-272" target="6Uvs3lZ900TofVNQGSp9-266" edge="1">
          <mxGeometry width="50" height="50" relative="1" as="geometry">
            <mxPoint x="350" y="729.75" as="sourcePoint" />
            <mxPoint x="400" y="679.75" as="targetPoint" />
          </mxGeometry>
        </mxCell>
        <mxCell id="6Uvs3lZ900TofVNQGSp9-297" value="" style="endArrow=classic;html=1;rounded=0;exitX=1;exitY=0.5;exitDx=0;exitDy=0;entryX=0;entryY=0.5;entryDx=0;entryDy=0;" parent="1" source="6Uvs3lZ900TofVNQGSp9-273" target="6Uvs3lZ900TofVNQGSp9-276" edge="1">
          <mxGeometry width="50" height="50" relative="1" as="geometry">
            <mxPoint x="330" y="759.75" as="sourcePoint" />
            <mxPoint x="380" y="709.75" as="targetPoint" />
          </mxGeometry>
        </mxCell>
        <mxCell id="6Uvs3lZ900TofVNQGSp9-298" value="&lt;font style=&quot;font-size: 24px;&quot;&gt;$$-$$&lt;/font&gt;" style="ellipse;whiteSpace=wrap;html=1;aspect=fixed;fillColor=#F0F0F0;" parent="1" vertex="1">
          <mxGeometry x="500" y="650" width="40" height="40" as="geometry" />
        </mxCell>
        <mxCell id="6Uvs3lZ900TofVNQGSp9-299" value="" style="endArrow=classic;html=1;rounded=0;exitX=1;exitY=0.5;exitDx=0;exitDy=0;entryX=0;entryY=0;entryDx=0;entryDy=0;" parent="1" source="6Uvs3lZ900TofVNQGSp9-266" target="6Uvs3lZ900TofVNQGSp9-298" edge="1">
          <mxGeometry width="50" height="50" relative="1" as="geometry">
            <mxPoint x="550" y="560" as="sourcePoint" />
            <mxPoint x="600" y="510" as="targetPoint" />
            <Array as="points">
              <mxPoint x="470" y="468" />
            </Array>
          </mxGeometry>
        </mxCell>
        <mxCell id="6Uvs3lZ900TofVNQGSp9-300" value="" style="endArrow=classic;html=1;rounded=0;entryX=0;entryY=1;entryDx=0;entryDy=0;exitX=1;exitY=0.5;exitDx=0;exitDy=0;" parent="1" source="6Uvs3lZ900TofVNQGSp9-276" target="6Uvs3lZ900TofVNQGSp9-298" edge="1">
          <mxGeometry width="50" height="50" relative="1" as="geometry">
            <mxPoint x="470" y="750" as="sourcePoint" />
            <mxPoint x="520" y="700" as="targetPoint" />
            <Array as="points">
              <mxPoint x="470" y="880" />
            </Array>
          </mxGeometry>
        </mxCell>
        <mxCell id="6Uvs3lZ900TofVNQGSp9-301" value="" style="group" parent="1" vertex="1" connectable="0">
          <mxGeometry x="610" y="640" width="40" height="60" as="geometry" />
        </mxCell>
        <mxCell id="6Uvs3lZ900TofVNQGSp9-302" value="" style="group;strokeWidth=1;fillColor=#9A9B9E;strokeColor=default;container=0;" parent="6Uvs3lZ900TofVNQGSp9-301" vertex="1" connectable="0">
          <mxGeometry width="40" height="60" as="geometry" />
        </mxCell>
        <mxCell id="6Uvs3lZ900TofVNQGSp9-303" value="" style="rounded=0;whiteSpace=wrap;html=1;fillColor=#9A9B9E;" parent="6Uvs3lZ900TofVNQGSp9-301" vertex="1">
          <mxGeometry width="40" height="60" as="geometry" />
        </mxCell>
        <mxCell id="6Uvs3lZ900TofVNQGSp9-304" value="" style="triangle;whiteSpace=wrap;html=1;rotation=90;fillColor=#9A9B9E;" parent="6Uvs3lZ900TofVNQGSp9-301" vertex="1">
          <mxGeometry x="10" y="-10" width="20" height="40" as="geometry" />
        </mxCell>
        <mxCell id="6Uvs3lZ900TofVNQGSp9-305" value="" style="endArrow=classic;html=1;rounded=0;exitX=1;exitY=0.5;exitDx=0;exitDy=0;entryX=0;entryY=0.5;entryDx=0;entryDy=0;" parent="1" source="6Uvs3lZ900TofVNQGSp9-298" target="6Uvs3lZ900TofVNQGSp9-303" edge="1">
          <mxGeometry width="50" height="50" relative="1" as="geometry">
            <mxPoint x="560" y="730" as="sourcePoint" />
            <mxPoint x="610" y="680" as="targetPoint" />
          </mxGeometry>
        </mxCell>
        <mxCell id="6Uvs3lZ900TofVNQGSp9-306" value="" style="group" parent="1" vertex="1" connectable="0">
          <mxGeometry x="-1000" y="170" width="40" height="60" as="geometry" />
        </mxCell>
        <mxCell id="6Uvs3lZ900TofVNQGSp9-307" value="" style="group;strokeWidth=1;fillColor=#9A9B9E;strokeColor=default;container=0;" parent="6Uvs3lZ900TofVNQGSp9-306" vertex="1" connectable="0">
          <mxGeometry width="40" height="60" as="geometry" />
        </mxCell>
        <mxCell id="6Uvs3lZ900TofVNQGSp9-308" value="" style="rounded=0;whiteSpace=wrap;html=1;fillColor=#9A9B9E;" parent="6Uvs3lZ900TofVNQGSp9-306" vertex="1">
          <mxGeometry width="40" height="60" as="geometry" />
        </mxCell>
        <mxCell id="6Uvs3lZ900TofVNQGSp9-309" value="" style="triangle;whiteSpace=wrap;html=1;rotation=90;fillColor=#9A9B9E;" parent="6Uvs3lZ900TofVNQGSp9-306" vertex="1">
          <mxGeometry x="10" y="-10" width="20" height="40" as="geometry" />
        </mxCell>
        <mxCell id="6Uvs3lZ900TofVNQGSp9-310" value="" style="group" parent="1" vertex="1" connectable="0">
          <mxGeometry x="-1000" y="249.75" width="40" height="60" as="geometry" />
        </mxCell>
        <mxCell id="6Uvs3lZ900TofVNQGSp9-311" value="" style="group;strokeWidth=1;fillColor=#9A9B9E;strokeColor=default;container=0;" parent="6Uvs3lZ900TofVNQGSp9-310" vertex="1" connectable="0">
          <mxGeometry width="40" height="60" as="geometry" />
        </mxCell>
        <mxCell id="6Uvs3lZ900TofVNQGSp9-312" value="" style="rounded=0;whiteSpace=wrap;html=1;fillColor=#9A9B9E;" parent="6Uvs3lZ900TofVNQGSp9-310" vertex="1">
          <mxGeometry width="40" height="60" as="geometry" />
        </mxCell>
        <mxCell id="6Uvs3lZ900TofVNQGSp9-313" value="" style="triangle;whiteSpace=wrap;html=1;rotation=90;fillColor=#9A9B9E;" parent="6Uvs3lZ900TofVNQGSp9-310" vertex="1">
          <mxGeometry x="10" y="-10" width="20" height="40" as="geometry" />
        </mxCell>
        <mxCell id="6Uvs3lZ900TofVNQGSp9-314" value="" style="group" parent="1" vertex="1" connectable="0">
          <mxGeometry x="-1000" y="329.75" width="40" height="60" as="geometry" />
        </mxCell>
        <mxCell id="6Uvs3lZ900TofVNQGSp9-315" value="" style="group;strokeWidth=1;fillColor=#9A9B9E;strokeColor=default;container=0;" parent="6Uvs3lZ900TofVNQGSp9-314" vertex="1" connectable="0">
          <mxGeometry width="40" height="60" as="geometry" />
        </mxCell>
        <mxCell id="6Uvs3lZ900TofVNQGSp9-316" value="" style="rounded=0;whiteSpace=wrap;html=1;fillColor=#9A9B9E;" parent="6Uvs3lZ900TofVNQGSp9-314" vertex="1">
          <mxGeometry width="40" height="60" as="geometry" />
        </mxCell>
        <mxCell id="6Uvs3lZ900TofVNQGSp9-317" value="" style="triangle;whiteSpace=wrap;html=1;rotation=90;fillColor=#9A9B9E;" parent="6Uvs3lZ900TofVNQGSp9-314" vertex="1">
          <mxGeometry x="10" y="-10" width="20" height="40" as="geometry" />
        </mxCell>
        <mxCell id="6Uvs3lZ900TofVNQGSp9-318" value="" style="group" parent="1" vertex="1" connectable="0">
          <mxGeometry x="-1000" y="409.5" width="40" height="60" as="geometry" />
        </mxCell>
        <mxCell id="6Uvs3lZ900TofVNQGSp9-319" value="" style="group;strokeWidth=1;fillColor=#9A9B9E;strokeColor=default;container=0;" parent="6Uvs3lZ900TofVNQGSp9-318" vertex="1" connectable="0">
          <mxGeometry width="40" height="60" as="geometry" />
        </mxCell>
        <mxCell id="6Uvs3lZ900TofVNQGSp9-320" value="" style="rounded=0;whiteSpace=wrap;html=1;fillColor=#9A9B9E;" parent="6Uvs3lZ900TofVNQGSp9-318" vertex="1">
          <mxGeometry width="40" height="60" as="geometry" />
        </mxCell>
        <mxCell id="6Uvs3lZ900TofVNQGSp9-321" value="" style="triangle;whiteSpace=wrap;html=1;rotation=90;fillColor=#9A9B9E;" parent="6Uvs3lZ900TofVNQGSp9-318" vertex="1">
          <mxGeometry x="10" y="-10" width="20" height="40" as="geometry" />
        </mxCell>
        <mxCell id="6Uvs3lZ900TofVNQGSp9-322" value="" style="group" parent="1" vertex="1" connectable="0">
          <mxGeometry x="-1000" y="488" width="40" height="60" as="geometry" />
        </mxCell>
        <mxCell id="6Uvs3lZ900TofVNQGSp9-323" value="" style="group;strokeWidth=1;fillColor=#9A9B9E;strokeColor=default;container=0;" parent="6Uvs3lZ900TofVNQGSp9-322" vertex="1" connectable="0">
          <mxGeometry width="40" height="60" as="geometry" />
        </mxCell>
        <mxCell id="6Uvs3lZ900TofVNQGSp9-324" value="" style="rounded=0;whiteSpace=wrap;html=1;fillColor=#9A9B9E;" parent="6Uvs3lZ900TofVNQGSp9-322" vertex="1">
          <mxGeometry width="40" height="60" as="geometry" />
        </mxCell>
        <mxCell id="6Uvs3lZ900TofVNQGSp9-325" value="" style="triangle;whiteSpace=wrap;html=1;rotation=90;fillColor=#9A9B9E;" parent="6Uvs3lZ900TofVNQGSp9-322" vertex="1">
          <mxGeometry x="10" y="-10" width="20" height="40" as="geometry" />
        </mxCell>
        <mxCell id="6Uvs3lZ900TofVNQGSp9-326" value="" style="group" parent="1" vertex="1" connectable="0">
          <mxGeometry x="-1000" y="567.75" width="40" height="60" as="geometry" />
        </mxCell>
        <mxCell id="6Uvs3lZ900TofVNQGSp9-327" value="" style="group;strokeWidth=1;fillColor=#9A9B9E;strokeColor=default;container=0;" parent="6Uvs3lZ900TofVNQGSp9-326" vertex="1" connectable="0">
          <mxGeometry width="40" height="60" as="geometry" />
        </mxCell>
        <mxCell id="6Uvs3lZ900TofVNQGSp9-328" value="" style="rounded=0;whiteSpace=wrap;html=1;fillColor=#9A9B9E;" parent="6Uvs3lZ900TofVNQGSp9-326" vertex="1">
          <mxGeometry width="40" height="60" as="geometry" />
        </mxCell>
        <mxCell id="6Uvs3lZ900TofVNQGSp9-329" value="" style="triangle;whiteSpace=wrap;html=1;rotation=90;fillColor=#9A9B9E;" parent="6Uvs3lZ900TofVNQGSp9-326" vertex="1">
          <mxGeometry x="10" y="-10" width="20" height="40" as="geometry" />
        </mxCell>
        <mxCell id="6Uvs3lZ900TofVNQGSp9-330" value="" style="group" parent="1" vertex="1" connectable="0">
          <mxGeometry x="-1000" y="647.75" width="40" height="60" as="geometry" />
        </mxCell>
        <mxCell id="6Uvs3lZ900TofVNQGSp9-331" value="" style="group;strokeWidth=1;fillColor=#9A9B9E;strokeColor=default;container=0;" parent="6Uvs3lZ900TofVNQGSp9-330" vertex="1" connectable="0">
          <mxGeometry width="40" height="60" as="geometry" />
        </mxCell>
        <mxCell id="6Uvs3lZ900TofVNQGSp9-332" value="" style="rounded=0;whiteSpace=wrap;html=1;fillColor=#9A9B9E;" parent="6Uvs3lZ900TofVNQGSp9-330" vertex="1">
          <mxGeometry width="40" height="60" as="geometry" />
        </mxCell>
        <mxCell id="6Uvs3lZ900TofVNQGSp9-333" value="" style="triangle;whiteSpace=wrap;html=1;rotation=90;fillColor=#9A9B9E;" parent="6Uvs3lZ900TofVNQGSp9-330" vertex="1">
          <mxGeometry x="10" y="-10" width="20" height="40" as="geometry" />
        </mxCell>
        <mxCell id="6Uvs3lZ900TofVNQGSp9-334" value="" style="group" parent="1" vertex="1" connectable="0">
          <mxGeometry x="-1000" y="727.5" width="40" height="60" as="geometry" />
        </mxCell>
        <mxCell id="6Uvs3lZ900TofVNQGSp9-335" value="" style="group;strokeWidth=1;fillColor=#9A9B9E;strokeColor=default;container=0;" parent="6Uvs3lZ900TofVNQGSp9-334" vertex="1" connectable="0">
          <mxGeometry width="40" height="60" as="geometry" />
        </mxCell>
        <mxCell id="6Uvs3lZ900TofVNQGSp9-336" value="" style="rounded=0;whiteSpace=wrap;html=1;fillColor=#9A9B9E;" parent="6Uvs3lZ900TofVNQGSp9-334" vertex="1">
          <mxGeometry width="40" height="60" as="geometry" />
        </mxCell>
        <mxCell id="6Uvs3lZ900TofVNQGSp9-337" value="" style="triangle;whiteSpace=wrap;html=1;rotation=90;fillColor=#9A9B9E;" parent="6Uvs3lZ900TofVNQGSp9-334" vertex="1">
          <mxGeometry x="10" y="-10" width="20" height="40" as="geometry" />
        </mxCell>
        <mxCell id="6Uvs3lZ900TofVNQGSp9-338" value="" style="group" parent="1" vertex="1" connectable="0">
          <mxGeometry x="-1000" y="809.75" width="40" height="60" as="geometry" />
        </mxCell>
        <mxCell id="6Uvs3lZ900TofVNQGSp9-339" value="" style="group;strokeWidth=1;fillColor=#9A9B9E;strokeColor=default;container=0;" parent="6Uvs3lZ900TofVNQGSp9-338" vertex="1" connectable="0">
          <mxGeometry width="40" height="60" as="geometry" />
        </mxCell>
        <mxCell id="6Uvs3lZ900TofVNQGSp9-340" value="" style="rounded=0;whiteSpace=wrap;html=1;fillColor=#9A9B9E;" parent="6Uvs3lZ900TofVNQGSp9-338" vertex="1">
          <mxGeometry width="40" height="60" as="geometry" />
        </mxCell>
        <mxCell id="6Uvs3lZ900TofVNQGSp9-341" value="" style="triangle;whiteSpace=wrap;html=1;rotation=90;fillColor=#9A9B9E;" parent="6Uvs3lZ900TofVNQGSp9-338" vertex="1">
          <mxGeometry x="10" y="-10" width="20" height="40" as="geometry" />
        </mxCell>
        <mxCell id="6Uvs3lZ900TofVNQGSp9-342" value="" style="group" parent="1" vertex="1" connectable="0">
          <mxGeometry x="-1000" y="889.75" width="40" height="60" as="geometry" />
        </mxCell>
        <mxCell id="6Uvs3lZ900TofVNQGSp9-343" value="" style="group;strokeWidth=1;fillColor=#9A9B9E;strokeColor=default;container=0;" parent="6Uvs3lZ900TofVNQGSp9-342" vertex="1" connectable="0">
          <mxGeometry width="40" height="60" as="geometry" />
        </mxCell>
        <mxCell id="6Uvs3lZ900TofVNQGSp9-344" value="" style="rounded=0;whiteSpace=wrap;html=1;fillColor=#9A9B9E;" parent="6Uvs3lZ900TofVNQGSp9-342" vertex="1">
          <mxGeometry width="40" height="60" as="geometry" />
        </mxCell>
        <mxCell id="6Uvs3lZ900TofVNQGSp9-345" value="" style="triangle;whiteSpace=wrap;html=1;rotation=90;fillColor=#9A9B9E;" parent="6Uvs3lZ900TofVNQGSp9-342" vertex="1">
          <mxGeometry x="10" y="-10" width="20" height="40" as="geometry" />
        </mxCell>
        <mxCell id="Q722ckxabsYqj8SurIKe-1" value="" style="shape=trapezoid;perimeter=trapezoidPerimeter;whiteSpace=wrap;html=1;fixedSize=1;rotation=-90;fillColor=#F0F0F0;" parent="1" vertex="1">
          <mxGeometry x="720" y="737" width="335.08" height="28.44" as="geometry" />
        </mxCell>
        <mxCell id="Q722ckxabsYqj8SurIKe-33" value="" style="shape=ellipse;fillColor=#000000;strokeColor=none;html=1;sketch=0;" parent="1" vertex="1">
          <mxGeometry x="-850.75" y="200.25" width="10" height="10" as="geometry" />
        </mxCell>
        <mxCell id="Q722ckxabsYqj8SurIKe-34" value="" style="shape=ellipse;fillColor=#000000;strokeColor=none;html=1;sketch=0;" parent="1" vertex="1">
          <mxGeometry x="-850.75" y="430" width="10" height="10" as="geometry" />
        </mxCell>
        <mxCell id="Q722ckxabsYqj8SurIKe-35" value="" style="shape=ellipse;fillColor=#000000;strokeColor=none;html=1;sketch=0;" parent="1" vertex="1">
          <mxGeometry x="-850.75" y="520" width="10" height="10" as="geometry" />
        </mxCell>
        <mxCell id="Q722ckxabsYqj8SurIKe-36" value="" style="shape=ellipse;fillColor=#000000;strokeColor=none;html=1;sketch=0;" parent="1" vertex="1">
          <mxGeometry x="-850.75" y="750" width="10" height="10" as="geometry" />
        </mxCell>
        <mxCell id="Q722ckxabsYqj8SurIKe-38" value="&lt;font size=&quot;3&quot;&gt;$$\text{register bank}$$&lt;/font&gt;" style="rounded=0;whiteSpace=wrap;html=1;fillColor=#9A9B9E;" parent="1" vertex="1">
          <mxGeometry x="999.87" y="585" width="247.42" height="330" as="geometry" />
        </mxCell>
        <mxCell id="Q722ckxabsYqj8SurIKe-40" value="" style="triangle;whiteSpace=wrap;html=1;rotation=90;fillColor=#9A9B9E;" parent="1" vertex="1">
          <mxGeometry x="1216.5" y="575" width="20" height="40" as="geometry" />
        </mxCell>
        <mxCell id="Q722ckxabsYqj8SurIKe-41" value="&lt;font style=&quot;font-size: 14px;&quot;&gt;$$en$$&lt;/font&gt;" style="text;html=1;align=center;verticalAlign=middle;whiteSpace=wrap;rounded=0;" parent="1" vertex="1">
          <mxGeometry x="1010.0799999999999" y="586" width="60" height="18" as="geometry" />
        </mxCell>
        <mxCell id="Q722ckxabsYqj8SurIKe-42" value="&lt;font style=&quot;font-size: 14px;&quot;&gt;$$cs$$&lt;/font&gt;" style="text;html=1;align=center;verticalAlign=middle;whiteSpace=wrap;rounded=0;" parent="1" vertex="1">
          <mxGeometry x="1137.34" y="585" width="60" height="18" as="geometry" />
        </mxCell>
        <mxCell id="Q722ckxabsYqj8SurIKe-44" value="" style="shape=trapezoid;perimeter=trapezoidPerimeter;whiteSpace=wrap;html=1;fixedSize=1;rotation=-180;fillColor=#F0F0F0;" parent="1" vertex="1">
          <mxGeometry x="1002.5" y="540" width="75.16" height="28.44" as="geometry" />
        </mxCell>
        <mxCell id="Q722ckxabsYqj8SurIKe-70" value="" style="endArrow=none;html=1;rounded=0;exitX=0.5;exitY=1;exitDx=0;exitDy=0;entryX=0;entryY=0.5;entryDx=0;entryDy=0;startFill=0;" parent="1" source="Q722ckxabsYqj8SurIKe-1" target="Q722ckxabsYqj8SurIKe-38" edge="1">
          <mxGeometry width="50" height="50" relative="1" as="geometry">
            <mxPoint x="1047.58" y="825" as="sourcePoint" />
            <mxPoint x="1097.58" y="775" as="targetPoint" />
          </mxGeometry>
        </mxCell>
        <mxCell id="Q722ckxabsYqj8SurIKe-74" value="&lt;font style=&quot;font-size: 18px;&quot;&gt;$$\text{decoder}$$&lt;/font&gt;" style="rounded=1;whiteSpace=wrap;html=1;fillColor=#F0F0F0;" parent="1" vertex="1">
          <mxGeometry x="960.24" y="470" width="80" height="30" as="geometry" />
        </mxCell>
        <mxCell id="Q722ckxabsYqj8SurIKe-79" value="" style="group" parent="1" vertex="1" connectable="0">
          <mxGeometry x="898.5" y="330" width="89" height="67" as="geometry" />
        </mxCell>
        <mxCell id="Q722ckxabsYqj8SurIKe-75" value="&lt;font style=&quot;font-size: 18px;&quot;&gt;$$\text{counter}$$&lt;/font&gt;" style="rounded=1;whiteSpace=wrap;html=1;fillColor=#F0F0F0;" parent="Q722ckxabsYqj8SurIKe-79" vertex="1">
          <mxGeometry x="8.09090909090909" y="7" width="80.90909090909092" height="60" as="geometry" />
        </mxCell>
        <mxCell id="Q722ckxabsYqj8SurIKe-77" value="" style="triangle;whiteSpace=wrap;html=1;rotation=90;fillColor=#F0F0F0;" parent="Q722ckxabsYqj8SurIKe-79" vertex="1">
          <mxGeometry x="51.203232323232314" y="-4" width="17.97979797979798" height="40" as="geometry" />
        </mxCell>
        <mxCell id="Q722ckxabsYqj8SurIKe-78" value="&lt;font style=&quot;font-size: 14px;&quot;&gt;$$en$$&lt;/font&gt;" style="text;html=1;align=center;verticalAlign=middle;whiteSpace=wrap;rounded=0;" parent="Q722ckxabsYqj8SurIKe-79" vertex="1">
          <mxGeometry width="53.939393939393945" height="30" as="geometry" />
        </mxCell>
        <mxCell id="Q722ckxabsYqj8SurIKe-97" value="" style="endArrow=none;html=1;rounded=0;entryX=0.5;entryY=1;entryDx=0;entryDy=0;exitX=0.75;exitY=1;exitDx=0;exitDy=0;" parent="1" source="Q722ckxabsYqj8SurIKe-44" target="Q722ckxabsYqj8SurIKe-74" edge="1">
          <mxGeometry width="50" height="50" relative="1" as="geometry">
            <mxPoint x="947.5" y="530" as="sourcePoint" />
            <mxPoint x="997.5" y="480" as="targetPoint" />
            <Array as="points">
              <mxPoint x="1021.5" y="530" />
              <mxPoint x="1000.5" y="530" />
            </Array>
          </mxGeometry>
        </mxCell>
        <mxCell id="Q722ckxabsYqj8SurIKe-98" value="" style="shape=trapezoid;perimeter=trapezoidPerimeter;whiteSpace=wrap;html=1;fixedSize=1;rotation=-180;fillColor=#F0F0F0;" parent="1" vertex="1">
          <mxGeometry x="960.24" y="430" width="80.16" height="28.44" as="geometry" />
        </mxCell>
        <mxCell id="Q722ckxabsYqj8SurIKe-99" value="" style="endArrow=none;html=1;rounded=0;exitX=0.5;exitY=0;exitDx=0;exitDy=0;entryX=0.5;entryY=0;entryDx=0;entryDy=0;" parent="1" source="Q722ckxabsYqj8SurIKe-74" target="Q722ckxabsYqj8SurIKe-98" edge="1">
          <mxGeometry width="50" height="50" relative="1" as="geometry">
            <mxPoint x="1107.5" y="430" as="sourcePoint" />
            <mxPoint x="1157.5" y="380" as="targetPoint" />
          </mxGeometry>
        </mxCell>
        <mxCell id="Q722ckxabsYqj8SurIKe-102" value="" style="endArrow=none;html=1;rounded=0;entryX=0.5;entryY=1;entryDx=0;entryDy=0;exitX=0.75;exitY=1;exitDx=0;exitDy=0;" parent="1" source="Q722ckxabsYqj8SurIKe-98" target="Q722ckxabsYqj8SurIKe-75" edge="1">
          <mxGeometry width="50" height="50" relative="1" as="geometry">
            <mxPoint x="947.5" y="370" as="sourcePoint" />
            <mxPoint x="997.5" y="320" as="targetPoint" />
            <Array as="points">
              <mxPoint x="980.5" y="420" />
              <mxPoint x="947.5" y="420" />
            </Array>
          </mxGeometry>
        </mxCell>
        <mxCell id="Q722ckxabsYqj8SurIKe-105" value="$$0$$" style="text;html=1;align=center;verticalAlign=middle;whiteSpace=wrap;rounded=0;" parent="1" vertex="1">
          <mxGeometry x="1055.08" y="520" width="7.54" height="10" as="geometry" />
        </mxCell>
        <mxCell id="Q722ckxabsYqj8SurIKe-108" value="" style="endArrow=none;html=1;rounded=0;entryX=0.25;entryY=1;entryDx=0;entryDy=0;exitX=0.441;exitY=1.031;exitDx=0;exitDy=0;exitPerimeter=0;" parent="1" target="Q722ckxabsYqj8SurIKe-44" edge="1">
          <mxGeometry width="50" height="50" relative="1" as="geometry">
            <mxPoint x="1058.9" y="530.6199999999999" as="sourcePoint" />
            <mxPoint x="1067.5" y="540" as="targetPoint" />
          </mxGeometry>
        </mxCell>
        <mxCell id="Q722ckxabsYqj8SurIKe-114" value="" style="shape=trapezoid;perimeter=trapezoidPerimeter;whiteSpace=wrap;html=1;fixedSize=1;rotation=-180;fillColor=#F0F0F0;" parent="1" vertex="1">
          <mxGeometry x="1129.76" y="540" width="75.16" height="28.44" as="geometry" />
        </mxCell>
        <mxCell id="Q722ckxabsYqj8SurIKe-115" value="&lt;font style=&quot;font-size: 18px;&quot;&gt;$$\text{decoder}$$&lt;/font&gt;" style="rounded=1;whiteSpace=wrap;html=1;fillColor=#F0F0F0;" parent="1" vertex="1">
          <mxGeometry x="1087.34" y="470" width="80" height="30" as="geometry" />
        </mxCell>
        <mxCell id="Q722ckxabsYqj8SurIKe-116" value="" style="endArrow=none;html=1;rounded=0;entryX=0.5;entryY=1;entryDx=0;entryDy=0;exitX=0.75;exitY=1;exitDx=0;exitDy=0;" parent="1" source="Q722ckxabsYqj8SurIKe-114" target="Q722ckxabsYqj8SurIKe-115" edge="1">
          <mxGeometry width="50" height="50" relative="1" as="geometry">
            <mxPoint x="1074.76" y="530" as="sourcePoint" />
            <mxPoint x="1124.76" y="480" as="targetPoint" />
            <Array as="points">
              <mxPoint x="1148.76" y="530" />
              <mxPoint x="1127.76" y="530" />
            </Array>
          </mxGeometry>
        </mxCell>
        <mxCell id="Q722ckxabsYqj8SurIKe-117" value="$$0$$" style="text;html=1;align=center;verticalAlign=middle;whiteSpace=wrap;rounded=0;" parent="1" vertex="1">
          <mxGeometry x="1182.34" y="520" width="7.54" height="10" as="geometry" />
        </mxCell>
        <mxCell id="Q722ckxabsYqj8SurIKe-118" value="" style="endArrow=none;html=1;rounded=0;entryX=0.25;entryY=1;entryDx=0;entryDy=0;exitX=0.441;exitY=1.031;exitDx=0;exitDy=0;exitPerimeter=0;" parent="1" target="Q722ckxabsYqj8SurIKe-114" edge="1">
          <mxGeometry width="50" height="50" relative="1" as="geometry">
            <mxPoint x="1186.16" y="530.6199999999999" as="sourcePoint" />
            <mxPoint x="1194.76" y="540" as="targetPoint" />
          </mxGeometry>
        </mxCell>
        <mxCell id="Q722ckxabsYqj8SurIKe-119" value="" style="endArrow=none;html=1;rounded=0;exitX=0.5;exitY=0;exitDx=0;exitDy=0;entryX=0.5;entryY=0;entryDx=0;entryDy=0;" parent="1" source="Q722ckxabsYqj8SurIKe-42" target="Q722ckxabsYqj8SurIKe-114" edge="1">
          <mxGeometry width="50" height="50" relative="1" as="geometry">
            <mxPoint x="1277.5" y="540" as="sourcePoint" />
            <mxPoint x="1327.5" y="490" as="targetPoint" />
          </mxGeometry>
        </mxCell>
        <mxCell id="Q722ckxabsYqj8SurIKe-120" value="" style="group;rounded=0;" parent="1" vertex="1" connectable="0">
          <mxGeometry x="1080.0800000000002" y="330" width="89" height="67" as="geometry" />
        </mxCell>
        <mxCell id="Q722ckxabsYqj8SurIKe-121" value="&lt;font style=&quot;font-size: 18px;&quot;&gt;$$\text{counter}$$&lt;/font&gt;" style="rounded=1;whiteSpace=wrap;html=1;fillColor=#F0F0F0;" parent="Q722ckxabsYqj8SurIKe-120" vertex="1">
          <mxGeometry x="8.09090909090909" y="7" width="80.90909090909092" height="60" as="geometry" />
        </mxCell>
        <mxCell id="Q722ckxabsYqj8SurIKe-122" value="" style="triangle;whiteSpace=wrap;html=1;rotation=90;fillColor=#F0F0F0;" parent="Q722ckxabsYqj8SurIKe-120" vertex="1">
          <mxGeometry x="51.203232323232314" y="-4" width="17.97979797979798" height="40" as="geometry" />
        </mxCell>
        <mxCell id="Q722ckxabsYqj8SurIKe-123" value="&lt;font style=&quot;font-size: 14px;&quot;&gt;$$en$$&lt;/font&gt;" style="text;html=1;align=center;verticalAlign=middle;whiteSpace=wrap;rounded=0;" parent="Q722ckxabsYqj8SurIKe-120" vertex="1">
          <mxGeometry width="53.939393939393945" height="30" as="geometry" />
        </mxCell>
        <mxCell id="Q722ckxabsYqj8SurIKe-124" value="" style="endArrow=none;html=1;rounded=0;entryX=0.5;entryY=1;entryDx=0;entryDy=0;exitX=0.5;exitY=0;exitDx=0;exitDy=0;" parent="1" source="Q722ckxabsYqj8SurIKe-115" target="Q722ckxabsYqj8SurIKe-121" edge="1">
          <mxGeometry width="50" height="50" relative="1" as="geometry">
            <mxPoint x="1117.5" y="500" as="sourcePoint" />
            <mxPoint x="1167.5" y="450" as="targetPoint" />
          </mxGeometry>
        </mxCell>
        <mxCell id="Q722ckxabsYqj8SurIKe-139" value="" style="endArrow=none;html=1;rounded=0;entryX=0.5;entryY=0;entryDx=0;entryDy=0;exitX=0.162;exitY=-0.001;exitDx=0;exitDy=0;exitPerimeter=0;" parent="1" source="Q722ckxabsYqj8SurIKe-38" target="Q722ckxabsYqj8SurIKe-44" edge="1">
          <mxGeometry width="50" height="50" relative="1" as="geometry">
            <mxPoint x="947.5" y="630" as="sourcePoint" />
            <mxPoint x="997.5" y="580" as="targetPoint" />
          </mxGeometry>
        </mxCell>
        <mxCell id="Q722ckxabsYqj8SurIKe-190" value="&lt;font style=&quot;font-size: 18px;&quot;&gt;$$\text{max tree}$$&lt;/font&gt;" style="rounded=1;whiteSpace=wrap;html=1;fillColor=#F0F0F0;" parent="1" vertex="1">
          <mxGeometry x="1378.5" y="618" width="247.42" height="265" as="geometry" />
        </mxCell>
        <mxCell id="Q722ckxabsYqj8SurIKe-191" value="&lt;font style=&quot;font-size: 18px;&quot;&gt;$$\text{controller}$$&lt;/font&gt;" style="rounded=1;whiteSpace=wrap;html=1;fillColor=#F0F0F0;" parent="1" vertex="1">
          <mxGeometry x="1452.71" y="-70" width="99" height="360" as="geometry" />
        </mxCell>
        <mxCell id="Q722ckxabsYqj8SurIKe-195" value="" style="endArrow=none;html=1;rounded=0;exitX=1;exitY=0.5;exitDx=0;exitDy=0;entryX=0;entryY=0.5;entryDx=0;entryDy=0;" parent="1" source="Q722ckxabsYqj8SurIKe-38" target="Q722ckxabsYqj8SurIKe-190" edge="1">
          <mxGeometry width="50" height="50" relative="1" as="geometry">
            <mxPoint x="1367.5" y="760" as="sourcePoint" />
            <mxPoint x="1417.5" y="710" as="targetPoint" />
          </mxGeometry>
        </mxCell>
        <mxCell id="Q722ckxabsYqj8SurIKe-196" value="" style="shape=trapezoid;perimeter=trapezoidPerimeter;whiteSpace=wrap;html=1;fixedSize=1;rotation=-90;fillColor=#F0F0F0;" parent="1" vertex="1">
          <mxGeometry x="1596" y="735.78" width="335.08" height="28.44" as="geometry" />
        </mxCell>
        <mxCell id="Q722ckxabsYqj8SurIKe-197" value="" style="endArrow=none;html=1;rounded=0;exitX=1;exitY=0.5;exitDx=0;exitDy=0;entryX=0.5;entryY=0;entryDx=0;entryDy=0;" parent="1" source="Q722ckxabsYqj8SurIKe-190" target="Q722ckxabsYqj8SurIKe-196" edge="1">
          <mxGeometry width="50" height="50" relative="1" as="geometry">
            <mxPoint x="1857.5" y="790" as="sourcePoint" />
            <mxPoint x="1747.5" y="750" as="targetPoint" />
          </mxGeometry>
        </mxCell>
        <mxCell id="Q722ckxabsYqj8SurIKe-198" value="&lt;font style=&quot;font-size: 18px;&quot;&gt;$$\text{comparator}$$&lt;/font&gt;" style="rounded=1;whiteSpace=wrap;html=1;fillColor=#F0F0F0;" parent="1" vertex="1">
          <mxGeometry x="1877.5" y="717" width="149" height="133" as="geometry" />
        </mxCell>
        <mxCell id="Q722ckxabsYqj8SurIKe-200" value="" style="endArrow=none;html=1;rounded=0;entryX=0.25;entryY=0;entryDx=0;entryDy=0;exitX=1;exitY=0.75;exitDx=0;exitDy=0;" parent="1" source="Q722ckxabsYqj8SurIKe-198" target="Q722ckxabsYqj8SurIKe-1" edge="1">
          <mxGeometry width="50" height="50" relative="1" as="geometry">
            <mxPoint x="2027.5" y="770" as="sourcePoint" />
            <mxPoint x="747.5" y="850" as="targetPoint" />
            <Array as="points">
              <mxPoint x="2067.5" y="817" />
              <mxPoint x="2067.5" y="1050" />
              <mxPoint x="787.5" y="1050" />
              <mxPoint x="787.5" y="835" />
            </Array>
          </mxGeometry>
        </mxCell>
        <mxCell id="Q722ckxabsYqj8SurIKe-201" value="" style="triangle;whiteSpace=wrap;html=1;rotation=90;fillColor=#F0F0F0;" parent="1" vertex="1">
          <mxGeometry x="1561.5" y="608" width="20" height="40" as="geometry" />
        </mxCell>
        <mxCell id="Q722ckxabsYqj8SurIKe-202" value="&lt;font style=&quot;font-size: 14px;&quot;&gt;$$start$$&lt;/font&gt;" style="text;html=1;align=center;verticalAlign=middle;whiteSpace=wrap;rounded=0;" parent="1" vertex="1">
          <mxGeometry x="1427.5" y="613" width="60" height="30" as="geometry" />
        </mxCell>
        <mxCell id="SzusxRQVRMnyUwZ2KCdy-1" value="" style="endArrow=none;html=1;rounded=0;entryX=1;entryY=0.5;entryDx=0;entryDy=0;" edge="1" parent="1" target="Q722ckxabsYqj8SurIKe-196">
          <mxGeometry width="50" height="50" relative="1" as="geometry">
            <mxPoint x="1127.5" y="460" as="sourcePoint" />
            <mxPoint x="1757.5" y="470" as="targetPoint" />
            <Array as="points">
              <mxPoint x="1763.5" y="460" />
            </Array>
          </mxGeometry>
        </mxCell>
        <mxCell id="SzusxRQVRMnyUwZ2KCdy-2" value="" style="endArrow=none;html=1;rounded=0;entryX=0;entryY=0.25;entryDx=0;entryDy=0;exitX=0.5;exitY=1;exitDx=0;exitDy=0;" edge="1" parent="1" source="Q722ckxabsYqj8SurIKe-196" target="Q722ckxabsYqj8SurIKe-198">
          <mxGeometry width="50" height="50" relative="1" as="geometry">
            <mxPoint x="1837.5" y="940" as="sourcePoint" />
            <mxPoint x="1887.5" y="890" as="targetPoint" />
          </mxGeometry>
        </mxCell>
        <mxCell id="SzusxRQVRMnyUwZ2KCdy-3" value="" style="endArrow=none;html=1;rounded=0;exitX=1;exitY=0.25;exitDx=0;exitDy=0;entryX=0.25;entryY=1;entryDx=0;entryDy=0;" edge="1" parent="1" source="Q722ckxabsYqj8SurIKe-198" target="Q722ckxabsYqj8SurIKe-98">
          <mxGeometry width="50" height="50" relative="1" as="geometry">
            <mxPoint x="2037.5" y="750" as="sourcePoint" />
            <mxPoint x="2087.5" y="700" as="targetPoint" />
            <Array as="points">
              <mxPoint x="2047.5" y="750" />
              <mxPoint x="2047.5" y="420" />
              <mxPoint x="1020.5" y="420" />
            </Array>
          </mxGeometry>
        </mxCell>
        <mxCell id="SzusxRQVRMnyUwZ2KCdy-4" value="" style="endArrow=none;html=1;rounded=0;exitX=1;exitY=0.5;exitDx=0;exitDy=0;entryX=1;entryY=0.75;entryDx=0;entryDy=0;" edge="1" parent="1" source="Q722ckxabsYqj8SurIKe-198" target="Q722ckxabsYqj8SurIKe-191">
          <mxGeometry width="50" height="50" relative="1" as="geometry">
            <mxPoint x="2047.5" y="790" as="sourcePoint" />
            <mxPoint x="2067.5" y="308.46153846153857" as="targetPoint" />
            <Array as="points">
              <mxPoint x="2067.5" y="784" />
              <mxPoint x="2067.5" y="200" />
            </Array>
          </mxGeometry>
        </mxCell>
        <mxCell id="SzusxRQVRMnyUwZ2KCdy-6" value="" style="shape=trapezoid;perimeter=trapezoidPerimeter;whiteSpace=wrap;html=1;fixedSize=1;rotation=-180;fillColor=#F0F0F0;" vertex="1" parent="1">
          <mxGeometry x="1419.92" y="540" width="75.16" height="28.44" as="geometry" />
        </mxCell>
        <mxCell id="SzusxRQVRMnyUwZ2KCdy-7" value="$$0$$" style="text;html=1;align=center;verticalAlign=middle;whiteSpace=wrap;rounded=0;" vertex="1" parent="1">
          <mxGeometry x="1472.5" y="520" width="7.54" height="10" as="geometry" />
        </mxCell>
        <mxCell id="SzusxRQVRMnyUwZ2KCdy-8" value="" style="endArrow=none;html=1;rounded=0;entryX=0.25;entryY=1;entryDx=0;entryDy=0;exitX=0.441;exitY=1.031;exitDx=0;exitDy=0;exitPerimeter=0;" edge="1" parent="1" target="SzusxRQVRMnyUwZ2KCdy-6">
          <mxGeometry width="50" height="50" relative="1" as="geometry">
            <mxPoint x="1476.3200000000002" y="530.6199999999999" as="sourcePoint" />
            <mxPoint x="1484.92" y="540" as="targetPoint" />
          </mxGeometry>
        </mxCell>
        <mxCell id="SzusxRQVRMnyUwZ2KCdy-12" value="" style="group" vertex="1" connectable="0" parent="1">
          <mxGeometry x="1307.5" y="480" width="40" height="60" as="geometry" />
        </mxCell>
        <mxCell id="SzusxRQVRMnyUwZ2KCdy-13" value="" style="group;strokeWidth=1;fillColor=#9A9B9E;strokeColor=default;container=0;" vertex="1" connectable="0" parent="SzusxRQVRMnyUwZ2KCdy-12">
          <mxGeometry width="40" height="60" as="geometry" />
        </mxCell>
        <mxCell id="SzusxRQVRMnyUwZ2KCdy-14" value="" style="rounded=0;whiteSpace=wrap;html=1;fillColor=#9A9B9E;" vertex="1" parent="SzusxRQVRMnyUwZ2KCdy-12">
          <mxGeometry width="40" height="60" as="geometry" />
        </mxCell>
        <mxCell id="SzusxRQVRMnyUwZ2KCdy-15" value="" style="triangle;whiteSpace=wrap;html=1;rotation=90;fillColor=#9A9B9E;" vertex="1" parent="SzusxRQVRMnyUwZ2KCdy-12">
          <mxGeometry x="10" y="-10" width="20" height="40" as="geometry" />
        </mxCell>
        <mxCell id="SzusxRQVRMnyUwZ2KCdy-16" value="" style="endArrow=none;html=1;rounded=0;entryX=0;entryY=0.5;entryDx=0;entryDy=0;" edge="1" parent="1" target="SzusxRQVRMnyUwZ2KCdy-14">
          <mxGeometry width="50" height="50" relative="1" as="geometry">
            <mxPoint x="1127.5" y="510" as="sourcePoint" />
            <mxPoint x="1307.5" y="510" as="targetPoint" />
          </mxGeometry>
        </mxCell>
        <mxCell id="SzusxRQVRMnyUwZ2KCdy-17" value="" style="endArrow=none;html=1;rounded=0;exitX=1;exitY=0.5;exitDx=0;exitDy=0;entryX=0.75;entryY=1;entryDx=0;entryDy=0;" edge="1" parent="1" source="SzusxRQVRMnyUwZ2KCdy-14" target="SzusxRQVRMnyUwZ2KCdy-6">
          <mxGeometry width="50" height="50" relative="1" as="geometry">
            <mxPoint x="1387.5" y="550" as="sourcePoint" />
            <mxPoint x="1437.5" y="500" as="targetPoint" />
            <Array as="points">
              <mxPoint x="1438.5" y="510" />
            </Array>
          </mxGeometry>
        </mxCell>
        <mxCell id="SzusxRQVRMnyUwZ2KCdy-18" value="" style="shape=trapezoid;perimeter=trapezoidPerimeter;whiteSpace=wrap;html=1;fixedSize=1;rotation=-90;fillColor=#F0F0F0;" vertex="1" parent="1">
          <mxGeometry x="2114" y="735.78" width="335.08" height="28.44" as="geometry" />
        </mxCell>
        <mxCell id="SzusxRQVRMnyUwZ2KCdy-19" value="" style="endArrow=none;html=1;rounded=0;exitX=0.842;exitY=-0.001;exitDx=0;exitDy=0;exitPerimeter=0;" edge="1" parent="1" source="SzusxRQVRMnyUwZ2KCdy-18">
          <mxGeometry width="50" height="50" relative="1" as="geometry">
            <mxPoint x="2276.83652" y="635.5675600000002" as="sourcePoint" />
            <mxPoint x="1307.5" y="750.5" as="targetPoint" />
            <Array as="points">
              <mxPoint x="2197.5" y="636" />
              <mxPoint x="2197.5" y="930" />
              <mxPoint x="1307.5" y="925.5" />
            </Array>
          </mxGeometry>
        </mxCell>
        <mxCell id="SzusxRQVRMnyUwZ2KCdy-20" value="" style="endArrow=none;html=1;rounded=0;exitX=0.633;exitY=-0.001;exitDx=0;exitDy=0;exitPerimeter=0;" edge="1" parent="1" source="SzusxRQVRMnyUwZ2KCdy-18">
          <mxGeometry width="50" height="50" relative="1" as="geometry">
            <mxPoint x="2247.5" y="690" as="sourcePoint" />
            <mxPoint x="1317.5" y="750" as="targetPoint" />
            <Array as="points">
              <mxPoint x="2207.5" y="705" />
              <mxPoint x="2207.5" y="940" />
              <mxPoint x="1317.5" y="940" />
            </Array>
          </mxGeometry>
        </mxCell>
        <mxCell id="SzusxRQVRMnyUwZ2KCdy-21" value="" style="endArrow=none;html=1;rounded=0;exitX=0.384;exitY=0.006;exitDx=0;exitDy=0;exitPerimeter=0;" edge="1" parent="1" source="SzusxRQVRMnyUwZ2KCdy-18">
          <mxGeometry width="50" height="50" relative="1" as="geometry">
            <mxPoint x="2127.5" y="810" as="sourcePoint" />
            <mxPoint x="1327.5" y="750" as="targetPoint" />
            <Array as="points">
              <mxPoint x="2217.5" y="790" />
              <mxPoint x="2217.5" y="950" />
              <mxPoint x="1327.5" y="950" />
            </Array>
          </mxGeometry>
        </mxCell>
        <mxCell id="SzusxRQVRMnyUwZ2KCdy-22" value="" style="endArrow=none;html=1;rounded=0;exitX=0.164;exitY=0.003;exitDx=0;exitDy=0;exitPerimeter=0;" edge="1" parent="1" source="SzusxRQVRMnyUwZ2KCdy-18">
          <mxGeometry width="50" height="50" relative="1" as="geometry">
            <mxPoint x="1337.5" y="1060" as="sourcePoint" />
            <mxPoint x="1337.5" y="750" as="targetPoint" />
            <Array as="points">
              <mxPoint x="2227.5" y="863" />
              <mxPoint x="2227.5" y="960" />
              <mxPoint x="1337.5" y="960" />
            </Array>
          </mxGeometry>
        </mxCell>
        <mxCell id="SzusxRQVRMnyUwZ2KCdy-23" value="" style="group" vertex="1" connectable="0" parent="1">
          <mxGeometry x="2232.5" y="340" width="89" height="67" as="geometry" />
        </mxCell>
        <mxCell id="SzusxRQVRMnyUwZ2KCdy-24" value="&lt;font style=&quot;font-size: 18px;&quot;&gt;$$\text{counter}$$&lt;/font&gt;" style="rounded=1;whiteSpace=wrap;html=1;fillColor=#F0F0F0;" vertex="1" parent="SzusxRQVRMnyUwZ2KCdy-23">
          <mxGeometry x="8.09090909090909" y="7" width="80.90909090909092" height="60" as="geometry" />
        </mxCell>
        <mxCell id="SzusxRQVRMnyUwZ2KCdy-25" value="" style="triangle;whiteSpace=wrap;html=1;rotation=90;fillColor=#F0F0F0;" vertex="1" parent="SzusxRQVRMnyUwZ2KCdy-23">
          <mxGeometry x="51.203232323232314" y="-4" width="17.97979797979798" height="40" as="geometry" />
        </mxCell>
        <mxCell id="SzusxRQVRMnyUwZ2KCdy-26" value="&lt;font style=&quot;font-size: 14px;&quot;&gt;$$en$$&lt;/font&gt;" style="text;html=1;align=center;verticalAlign=middle;whiteSpace=wrap;rounded=0;" vertex="1" parent="SzusxRQVRMnyUwZ2KCdy-23">
          <mxGeometry width="53.939393939393945" height="30" as="geometry" />
        </mxCell>
        <mxCell id="SzusxRQVRMnyUwZ2KCdy-31" value="" style="endArrow=none;html=1;rounded=0;exitX=1;exitY=0.5;exitDx=0;exitDy=0;entryX=0.5;entryY=1;entryDx=0;entryDy=0;" edge="1" parent="1" source="SzusxRQVRMnyUwZ2KCdy-18" target="SzusxRQVRMnyUwZ2KCdy-24">
          <mxGeometry width="50" height="50" relative="1" as="geometry">
            <mxPoint x="2207.5" y="570" as="sourcePoint" />
            <mxPoint x="2257.5" y="520" as="targetPoint" />
          </mxGeometry>
        </mxCell>
        <mxCell id="SzusxRQVRMnyUwZ2KCdy-32" value="" style="endArrow=none;html=1;rounded=0;entryX=0.75;entryY=0;entryDx=0;entryDy=0;exitX=1;exitY=0.5;exitDx=0;exitDy=0;" edge="1" parent="1" source="6Uvs3lZ900TofVNQGSp9-303" target="Q722ckxabsYqj8SurIKe-1">
          <mxGeometry width="50" height="50" relative="1" as="geometry">
            <mxPoint x="600" y="940" as="sourcePoint" />
            <mxPoint x="650" y="890" as="targetPoint" />
          </mxGeometry>
        </mxCell>
        <mxCell id="SzusxRQVRMnyUwZ2KCdy-33" value="" style="endArrow=none;html=1;rounded=0;exitX=0;exitY=0.75;exitDx=0;exitDy=0;" edge="1" parent="1" source="Q722ckxabsYqj8SurIKe-198">
          <mxGeometry width="50" height="50" relative="1" as="geometry">
            <mxPoint x="680" y="1000" as="sourcePoint" />
            <mxPoint x="680" y="670" as="targetPoint" />
            <Array as="points">
              <mxPoint x="1840" y="817" />
              <mxPoint x="1840" y="1000" />
              <mxPoint x="680" y="1000" />
            </Array>
          </mxGeometry>
        </mxCell>
      </root>
    </mxGraphModel>
  </diagram>
</mxfile>
